<svg width="18" height="15" viewBox="0 0 18 15" fill="none" xmlns="http://www.w3.org/2000/svg">
<path d="M5.22676 5.64793L7.69131 2.88856L7.69153 2.88831C8.24921 2.26079 8.24922 1.24081 7.69156 0.613278C7.13756 -0.0044508 6.25496 -0.00442644 5.70098 0.613349C5.70095 0.613385 5.70092 0.61342 5.70089 0.613456L0.572161 6.3624L0.572248 6.36248L0.568106 6.36677C0.292612 6.65192 0.15 7.0449 0.15 7.48905C0.15 7.9324 0.292166 8.32078 0.568991 8.61225L0.569052 8.6122L0.572348 8.61591L5.7013 14.387C5.70131 14.387 5.70132 14.387 5.70132 14.387C6.25018 15.0043 7.13735 15.0043 7.6862 14.387C8.24419 13.7594 8.24419 12.739 7.6862 12.1114L5.22165 9.35207L4.99843 9.10215H5.33352L16.4301 9.10215C17.2015 9.10215 17.85 8.4023 17.85 7.5C17.85 6.59737 17.2012 5.89786 16.4352 5.89786L5.33864 5.89786H5.00354L5.22676 5.64793Z" fill="#4690FF" stroke="white" stroke-width="0.3"/>
</svg>
