<svg width="16" height="16" viewBox="0 0 16 16" fill="none" xmlns="http://www.w3.org/2000/svg">
<rect width="16" height="12.3636" rx="2" fill="white"/>
<rect y="13.8186" width="16" height="2.18182" rx="1.09091" fill="white"/>
<mask id="path-3-outside-1_656_50" maskUnits="userSpaceOnUse" x="1.54905" y="0.637398" width="13" height="10" fill="black">
<rect fill="white" x="1.54905" y="0.637398" width="13" height="10"/>
<path fill-rule="evenodd" clip-rule="evenodd" d="M7.68472 1.6374C7.45506 1.6374 7.25949 1.76577 7.18573 1.94537L7.18112 1.94502L5.63883 6.47384H3.13036C3.1136 6.47244 3.09661 6.47172 3.07943 6.47172C2.78651 6.47172 2.54905 6.68055 2.54905 6.93815C2.54905 7.18808 2.77258 7.3921 3.05342 7.40403V7.40554H6.4275L7.4905 3.85056L8.15053 9.54187C8.15541 9.79576 8.39096 10.0002 8.68083 10.0002C8.92186 10.0002 9.12534 9.85885 9.18987 9.66523L10.0556 7.40554H13.6481V7.40458C13.6481 7.40458 13.6481 7.40458 13.6482 7.40458C13.9411 7.40458 14.1786 7.19575 14.1786 6.93815C14.1786 6.68055 13.9411 6.47172 13.6482 6.47172C13.631 6.47172 13.614 6.47244 13.5973 6.47384H9.29456L8.79704 8.39544L8.21471 2.02444L8.20734 2.02388C8.16422 1.80437 7.94664 1.6374 7.68472 1.6374Z"/>
</mask>
<path fill-rule="evenodd" clip-rule="evenodd" d="M7.68472 1.6374C7.45506 1.6374 7.25949 1.76577 7.18573 1.94537L7.18112 1.94502L5.63883 6.47384H3.13036C3.1136 6.47244 3.09661 6.47172 3.07943 6.47172C2.78651 6.47172 2.54905 6.68055 2.54905 6.93815C2.54905 7.18808 2.77258 7.3921 3.05342 7.40403V7.40554H6.4275L7.4905 3.85056L8.15053 9.54187C8.15541 9.79576 8.39096 10.0002 8.68083 10.0002C8.92186 10.0002 9.12534 9.85885 9.18987 9.66523L10.0556 7.40554H13.6481V7.40458C13.6481 7.40458 13.6481 7.40458 13.6482 7.40458C13.9411 7.40458 14.1786 7.19575 14.1786 6.93815C14.1786 6.68055 13.9411 6.47172 13.6482 6.47172C13.631 6.47172 13.614 6.47244 13.5973 6.47384H9.29456L8.79704 8.39544L8.21471 2.02444L8.20734 2.02388C8.16422 1.80437 7.94664 1.6374 7.68472 1.6374Z" fill="#1B2535"/>
<path d="M7.18573 1.94537L7.16657 2.19464L7.3479 2.20857L7.41699 2.04034L7.18573 1.94537ZM7.18112 1.94502L7.20027 1.69575L7.00696 1.6809L6.94446 1.86442L7.18112 1.94502ZM5.63883 6.47384V6.72384H5.81779L5.87549 6.55443L5.63883 6.47384ZM3.13036 6.47384L3.10949 6.72297L3.11991 6.72384H3.13036V6.47384ZM3.05342 7.40403H3.30342V7.16442L3.06403 7.15426L3.05342 7.40403ZM3.05342 7.40554H2.80342V7.65554H3.05342V7.40554ZM6.4275 7.40554V7.65554H6.61368L6.66702 7.47716L6.4275 7.40554ZM7.4905 3.85056L7.73883 3.82176L7.25098 3.77894L7.4905 3.85056ZM8.15053 9.54187L8.40048 9.53706L8.40025 9.52502L8.39886 9.51307L8.15053 9.54187ZM9.18987 9.66523L8.95619 9.5757L8.95269 9.58619L9.18987 9.66523ZM10.0556 7.40554V7.15554H9.88365L9.82214 7.3161L10.0556 7.40554ZM13.6481 7.40554V7.65554H13.8981V7.40554H13.6481ZM13.6481 7.40458V7.15458H13.3981V7.40458H13.6481ZM13.5973 6.47384V6.72384H13.6077L13.6181 6.72297L13.5973 6.47384ZM9.29456 6.47384V6.22384H9.10105L9.05254 6.41118L9.29456 6.47384ZM8.79704 8.39544L8.54808 8.41819L9.03906 8.4581L8.79704 8.39544ZM8.21471 2.02444L8.46368 2.00169L8.44445 1.79136L8.23387 1.77518L8.21471 2.02444ZM8.20734 2.02388L7.96202 2.07206L7.99866 2.25858L8.18818 2.27314L8.20734 2.02388ZM7.41699 2.04034C7.44781 1.96529 7.54429 1.8874 7.68472 1.8874V1.3874C7.36582 1.3874 7.07117 1.56625 6.95447 1.8504L7.41699 2.04034ZM7.16196 2.19428L7.16657 2.19464L7.20489 1.69611L7.20027 1.69575L7.16196 2.19428ZM5.87549 6.55443L7.41777 2.02561L6.94446 1.86442L5.40218 6.39325L5.87549 6.55443ZM3.13036 6.72384H5.63883V6.22384H3.13036V6.72384ZM3.07943 6.72172C3.08964 6.72172 3.09966 6.72214 3.10949 6.72297L3.15123 6.22471C3.12753 6.22273 3.10358 6.22172 3.07943 6.22172V6.72172ZM2.79905 6.93815C2.79905 6.84783 2.89343 6.72172 3.07943 6.72172V6.22172C2.67958 6.22172 2.29905 6.51326 2.29905 6.93815H2.79905ZM3.06403 7.15426C2.88717 7.14675 2.79905 7.02616 2.79905 6.93815H2.29905C2.29905 7.35001 2.65799 7.63746 3.04281 7.65381L3.06403 7.15426ZM3.30342 7.40554V7.40403H2.80342V7.40554H3.30342ZM6.4275 7.15554H3.05342V7.65554H6.4275V7.15554ZM7.25098 3.77894L6.18798 7.33392L6.66702 7.47716L7.73002 3.92218L7.25098 3.77894ZM8.39886 9.51307L7.73883 3.82176L7.24216 3.87936L7.90219 9.57067L8.39886 9.51307ZM8.68083 9.75025C8.49715 9.75025 8.4022 9.62662 8.40048 9.53706L7.90057 9.54667C7.90862 9.96489 8.28478 10.2502 8.68083 10.2502V9.75025ZM8.95269 9.58619C8.92665 9.66434 8.82906 9.75025 8.68083 9.75025V10.2502C9.01467 10.2502 9.32404 10.0534 9.42704 9.74427L8.95269 9.58619ZM9.82214 7.3161L8.95641 9.57579L9.42332 9.75467L10.289 7.49498L9.82214 7.3161ZM13.6481 7.15554H10.0556V7.65554H13.6481V7.15554ZM13.3981 7.40458V7.40554H13.8981V7.40458H13.3981ZM13.6482 7.15458C13.6482 7.15458 13.6482 7.15458 13.6482 7.15458H13.6482C13.6482 7.15458 13.6482 7.15458 13.6482 7.15458C13.6482 7.15458 13.6482 7.15458 13.6482 7.15458C13.6482 7.15458 13.6482 7.15458 13.6482 7.15458C13.6482 7.15458 13.6482 7.15458 13.6482 7.15458H13.6482C13.6482 7.15458 13.6482 7.15458 13.6482 7.15458C13.6482 7.15458 13.6482 7.15458 13.6482 7.15458H13.6482C13.6482 7.15458 13.6482 7.15458 13.6482 7.15458C13.6482 7.15458 13.6482 7.15458 13.6482 7.15458C13.6482 7.15458 13.6482 7.15458 13.6482 7.15458C13.6482 7.15458 13.6482 7.15458 13.6482 7.15458H13.6482C13.6482 7.15458 13.6482 7.15458 13.6482 7.15458C13.6482 7.15458 13.6482 7.15458 13.6482 7.15458H13.6482C13.6482 7.15458 13.6482 7.15458 13.6482 7.15458C13.6482 7.15458 13.6482 7.15458 13.6482 7.15458C13.6482 7.15458 13.6482 7.15458 13.6482 7.15458C13.6482 7.15458 13.6482 7.15458 13.6482 7.15458H13.6482C13.6482 7.15458 13.6482 7.15458 13.6482 7.15458C13.6482 7.15458 13.6482 7.15458 13.6482 7.15458H13.6482C13.6482 7.15458 13.6482 7.15458 13.6482 7.15458H13.6482C13.6482 7.15458 13.6482 7.15458 13.6482 7.15458C13.6482 7.15458 13.6482 7.15458 13.6482 7.15458H13.6482C13.6482 7.15458 13.6482 7.15458 13.6482 7.15458C13.6482 7.15458 13.6482 7.15458 13.6482 7.15458H13.6482C13.6482 7.15458 13.6482 7.15458 13.6482 7.15458H13.6482C13.6482 7.15458 13.6482 7.15458 13.6482 7.15458C13.6481 7.15458 13.6481 7.15458 13.6481 7.15458H13.6481C13.6481 7.15458 13.6481 7.15458 13.6481 7.15458C13.6481 7.15458 13.6481 7.15458 13.6481 7.15458H13.6481C13.6481 7.15458 13.6481 7.15458 13.6481 7.15458H13.6481C13.6481 7.15458 13.6481 7.15458 13.6481 7.15458C13.6481 7.15458 13.6481 7.15458 13.6481 7.15458H13.6481C13.6481 7.15458 13.6481 7.15458 13.6481 7.15458C13.6481 7.15458 13.6481 7.15458 13.6481 7.15458H13.6481C13.6481 7.15458 13.6481 7.15458 13.6481 7.15458H13.6481C13.6481 7.15458 13.6481 7.15458 13.6481 7.15458C13.6481 7.15458 13.6481 7.15458 13.6481 7.15458H13.6481C13.6481 7.15458 13.6481 7.15458 13.6481 7.15458C13.6481 7.15458 13.6481 7.15458 13.6481 7.15458H13.6481C13.6481 7.15458 13.6481 7.15458 13.6481 7.15458H13.6481C13.6481 7.15458 13.6481 7.15458 13.6481 7.15458C13.6481 7.15458 13.6481 7.15458 13.6481 7.15458H13.6481C13.6481 7.15458 13.6481 7.15458 13.6481 7.15458C13.6481 7.15458 13.6481 7.15458 13.6481 7.15458H13.6481C13.6481 7.15458 13.6481 7.15458 13.6481 7.15458H13.6481C13.6481 7.15458 13.6481 7.15458 13.6481 7.15458C13.6481 7.15458 13.6481 7.15458 13.6481 7.15458H13.6481C13.6481 7.15458 13.6481 7.15458 13.6481 7.15458C13.6481 7.15458 13.6481 7.15458 13.6481 7.15458H13.6481C13.6481 7.15458 13.6481 7.15458 13.6481 7.15458H13.6481C13.6481 7.15458 13.6481 7.15458 13.6481 7.15458C13.6481 7.15458 13.6481 7.15458 13.6481 7.15458H13.6481C13.6481 7.15458 13.6481 7.15458 13.6481 7.15458C13.6481 7.15458 13.6481 7.15458 13.6481 7.15458H13.6481C13.6481 7.15458 13.6481 7.15458 13.6481 7.15458H13.6481C13.6481 7.15458 13.6481 7.15458 13.6481 7.15458C13.6481 7.15458 13.6481 7.15458 13.6481 7.15458H13.6481C13.6481 7.15458 13.6481 7.15458 13.6481 7.15458C13.6481 7.15458 13.6481 7.15458 13.6481 7.15458H13.6481C13.6481 7.15458 13.6481 7.15458 13.6481 7.15458H13.6481C13.6481 7.15458 13.6481 7.15458 13.6481 7.15458C13.6481 7.15458 13.6481 7.15458 13.6481 7.15458H13.6481C13.6481 7.15458 13.6481 7.15458 13.6481 7.15458C13.6481 7.15458 13.6481 7.15458 13.6481 7.15458H13.6481C13.6481 7.15458 13.6481 7.15458 13.6481 7.15458H13.6481C13.6481 7.15458 13.6481 7.15458 13.6481 7.15458C13.6481 7.15458 13.6481 7.15458 13.6481 7.15458H13.6481C13.6481 7.15458 13.6481 7.15458 13.6481 7.15458C13.6481 7.15458 13.6481 7.15458 13.6481 7.15458C13.6481 7.15458 13.6481 7.15458 13.6481 7.15458C13.6481 7.15458 13.6481 7.15458 13.6481 7.15458H13.6481C13.6481 7.15458 13.6481 7.15458 13.6481 7.15458C13.6481 7.15458 13.6481 7.15458 13.6481 7.15458H13.6481C13.6481 7.15458 13.6481 7.15458 13.6481 7.15458C13.6481 7.15458 13.6481 7.15458 13.6481 7.15458C13.6481 7.15458 13.6481 7.15458 13.6481 7.15458C13.6481 7.15458 13.6481 7.15458 13.6481 7.15458H13.6481C13.6481 7.15458 13.6481 7.15458 13.6481 7.15458V7.65458C13.6481 7.65458 13.6481 7.65458 13.6481 7.65458H13.6481C13.6481 7.65458 13.6481 7.65458 13.6481 7.65458C13.6481 7.65458 13.6481 7.65458 13.6481 7.65458C13.6481 7.65458 13.6481 7.65458 13.6481 7.65458C13.6481 7.65458 13.6481 7.65458 13.6481 7.65458H13.6481C13.6481 7.65458 13.6481 7.65458 13.6481 7.65458C13.6481 7.65458 13.6481 7.65458 13.6481 7.65458H13.6481C13.6481 7.65458 13.6481 7.65458 13.6481 7.65458C13.6481 7.65458 13.6481 7.65458 13.6481 7.65458C13.6481 7.65458 13.6481 7.65458 13.6481 7.65458C13.6481 7.65458 13.6481 7.65458 13.6481 7.65458H13.6481C13.6481 7.65458 13.6481 7.65458 13.6481 7.65458C13.6481 7.65458 13.6481 7.65458 13.6481 7.65458H13.6481C13.6481 7.65458 13.6481 7.65458 13.6481 7.65458H13.6481C13.6481 7.65458 13.6481 7.65458 13.6481 7.65458C13.6481 7.65458 13.6481 7.65458 13.6481 7.65458H13.6481C13.6481 7.65458 13.6481 7.65458 13.6481 7.65458C13.6481 7.65458 13.6481 7.65458 13.6481 7.65458H13.6481C13.6481 7.65458 13.6481 7.65458 13.6481 7.65458H13.6481C13.6481 7.65458 13.6481 7.65458 13.6481 7.65458C13.6481 7.65458 13.6481 7.65458 13.6481 7.65458H13.6481C13.6481 7.65458 13.6481 7.65458 13.6481 7.65458C13.6481 7.65458 13.6481 7.65458 13.6481 7.65458H13.6481C13.6481 7.65458 13.6481 7.65458 13.6481 7.65458H13.6481C13.6481 7.65458 13.6481 7.65458 13.6481 7.65458C13.6481 7.65458 13.6481 7.65458 13.6481 7.65458H13.6481C13.6481 7.65458 13.6481 7.65458 13.6481 7.65458C13.6481 7.65458 13.6481 7.65458 13.6481 7.65458H13.6481C13.6481 7.65458 13.6481 7.65458 13.6481 7.65458H13.6481C13.6481 7.65458 13.6481 7.65458 13.6481 7.65458C13.6481 7.65458 13.6481 7.65458 13.6481 7.65458H13.6481C13.6481 7.65458 13.6481 7.65458 13.6481 7.65458C13.6481 7.65458 13.6481 7.65458 13.6481 7.65458H13.6481C13.6481 7.65458 13.6481 7.65458 13.6481 7.65458H13.6481C13.6481 7.65458 13.6481 7.65458 13.6481 7.65458C13.6481 7.65458 13.6481 7.65458 13.6481 7.65458H13.6481C13.6481 7.65458 13.6481 7.65458 13.6481 7.65458C13.6481 7.65458 13.6481 7.65458 13.6481 7.65458H13.6481C13.6481 7.65458 13.6481 7.65458 13.6481 7.65458H13.6481C13.6481 7.65458 13.6481 7.65458 13.6481 7.65458C13.6481 7.65458 13.6481 7.65458 13.6481 7.65458H13.6481C13.6481 7.65458 13.6481 7.65458 13.6481 7.65458C13.6481 7.65458 13.6481 7.65458 13.6481 7.65458H13.6481C13.6481 7.65458 13.6481 7.65458 13.6481 7.65458H13.6481C13.6481 7.65458 13.6481 7.65458 13.6481 7.65458C13.6481 7.65458 13.6481 7.65458 13.6481 7.65458H13.6481C13.6481 7.65458 13.6481 7.65458 13.6481 7.65458C13.6481 7.65458 13.6481 7.65458 13.6481 7.65458H13.6481C13.6481 7.65458 13.6481 7.65458 13.6481 7.65458H13.6481C13.6481 7.65458 13.6481 7.65458 13.6481 7.65458C13.6481 7.65458 13.6481 7.65458 13.6481 7.65458H13.6481C13.6481 7.65458 13.6481 7.65458 13.6482 7.65458C13.6482 7.65458 13.6482 7.65458 13.6482 7.65458H13.6482C13.6482 7.65458 13.6482 7.65458 13.6482 7.65458H13.6482C13.6482 7.65458 13.6482 7.65458 13.6482 7.65458C13.6482 7.65458 13.6482 7.65458 13.6482 7.65458H13.6482C13.6482 7.65458 13.6482 7.65458 13.6482 7.65458C13.6482 7.65458 13.6482 7.65458 13.6482 7.65458H13.6482C13.6482 7.65458 13.6482 7.65458 13.6482 7.65458H13.6482C13.6482 7.65458 13.6482 7.65458 13.6482 7.65458C13.6482 7.65458 13.6482 7.65458 13.6482 7.65458H13.6482C13.6482 7.65458 13.6482 7.65458 13.6482 7.65458C13.6482 7.65458 13.6482 7.65458 13.6482 7.65458C13.6482 7.65458 13.6482 7.65458 13.6482 7.65458C13.6482 7.65458 13.6482 7.65458 13.6482 7.65458H13.6482C13.6482 7.65458 13.6482 7.65458 13.6482 7.65458C13.6482 7.65458 13.6482 7.65458 13.6482 7.65458H13.6482C13.6482 7.65458 13.6482 7.65458 13.6482 7.65458C13.6482 7.65458 13.6482 7.65458 13.6482 7.65458C13.6482 7.65458 13.6482 7.65458 13.6482 7.65458C13.6482 7.65458 13.6482 7.65458 13.6482 7.65458H13.6482C13.6482 7.65458 13.6482 7.65458 13.6482 7.65458C13.6482 7.65458 13.6482 7.65458 13.6482 7.65458H13.6482C13.6482 7.65458 13.6482 7.65458 13.6482 7.65458C13.6482 7.65458 13.6482 7.65458 13.6482 7.65458C13.6482 7.65458 13.6482 7.65458 13.6482 7.65458C13.6482 7.65458 13.6482 7.65458 13.6482 7.65458H13.6482C13.6482 7.65458 13.6482 7.65458 13.6482 7.65458V7.15458ZM13.9286 6.93815C13.9286 7.02847 13.8342 7.15458 13.6482 7.15458V7.65458C14.048 7.65458 14.4286 7.36304 14.4286 6.93815H13.9286ZM13.6482 6.72172C13.8342 6.72172 13.9286 6.84783 13.9286 6.93815H14.4286C14.4286 6.51326 14.048 6.22172 13.6482 6.22172V6.72172ZM13.6181 6.72297C13.628 6.72214 13.638 6.72172 13.6482 6.72172V6.22172C13.624 6.22172 13.6001 6.22273 13.5764 6.22471L13.6181 6.72297ZM9.29456 6.72384H13.5973V6.22384H9.29456V6.72384ZM9.03906 8.4581L9.53658 6.5365L9.05254 6.41118L8.55502 8.33278L9.03906 8.4581ZM7.96575 2.0472L8.54808 8.41819L9.046 8.37268L8.46368 2.00169L7.96575 2.0472ZM8.18818 2.27314L8.19556 2.27371L8.23387 1.77518L8.22649 1.77461L8.18818 2.27314ZM7.68472 1.8874C7.84773 1.8874 7.94569 1.98889 7.96202 2.07206L8.45265 1.97569C8.38275 1.61984 8.04555 1.3874 7.68472 1.3874V1.8874Z" fill="#1B2535" mask="url(#path-3-outside-1_656_50)"/>
</svg>
