<svg width="16" height="18" viewBox="0 0 16 18" fill="none" xmlns="http://www.w3.org/2000/svg">
<path d="M9.29867 15.1111H6.62506C6.09033 15.1111 5.632 15.7222 5.93756 16.2569C6.39589 16.9444 7.15978 17.4028 8.00006 17.4028C8.84033 17.4028 9.60422 16.9444 9.98617 16.2569C10.2917 15.7222 9.90978 15.1111 9.29867 15.1111Z" fill="#1B2535"/>
<path d="M15.4861 12.5903L15.1806 12.2083C13.9584 10.6042 13.3473 8.69444 13.3473 6.70833V6.17361C13.3473 3.42361 11.3611 0.979165 8.61115 0.67361C5.40281 0.291665 2.65281 2.8125 2.65281 5.94444V6.70833C2.65281 8.69444 2.0417 10.6042 0.819478 12.2083L0.513922 12.5903C0.361145 12.7431 0.284756 13.0486 0.361144 13.2014C0.590311 13.8889 1.20142 14.3472 1.88892 14.3472H14.1111C14.7986 14.3472 15.4098 13.8889 15.5625 13.2014C15.6389 12.9722 15.5625 12.7431 15.4861 12.5903Z" fill="#1B2535"/>
</svg>
