<svg width="22" height="22" viewBox="0 0 22 22" fill="none" xmlns="http://www.w3.org/2000/svg">
<g clip-path="url(#clip0_1_1014)">
<path d="M8.9375 3.4375H4.8125C4.05311 3.4375 3.4375 4.05311 3.4375 4.8125V8.9375C3.4375 9.69689 4.05311 10.3125 4.8125 10.3125H8.9375C9.69689 10.3125 10.3125 9.69689 10.3125 8.9375V4.8125C10.3125 4.05311 9.69689 3.4375 8.9375 3.4375Z" fill="#1B2535"/>
<path d="M8.9375 11.6875H4.8125C4.05311 11.6875 3.4375 12.3031 3.4375 13.0625V17.1875C3.4375 17.9469 4.05311 18.5625 4.8125 18.5625H8.9375C9.69689 18.5625 10.3125 17.9469 10.3125 17.1875V13.0625C10.3125 12.3031 9.69689 11.6875 8.9375 11.6875Z" fill="#1B2535"/>
<path d="M17.1875 3.4375H13.0625C12.3031 3.4375 11.6875 4.05311 11.6875 4.8125V8.9375C11.6875 9.69689 12.3031 10.3125 13.0625 10.3125H17.1875C17.9469 10.3125 18.5625 9.69689 18.5625 8.9375V4.8125C18.5625 4.05311 17.9469 3.4375 17.1875 3.4375Z" fill="#1B2535"/>
<path d="M12.375 15.8125C12.5573 15.8125 12.7322 15.7401 12.8611 15.6111C12.9901 15.4822 13.0625 15.3073 13.0625 15.125V12.375C13.0625 12.1927 12.9901 12.0178 12.8611 11.8889C12.7322 11.7599 12.5573 11.6875 12.375 11.6875C12.1927 11.6875 12.0178 11.7599 11.8889 11.8889C11.7599 12.0178 11.6875 12.1927 11.6875 12.375V15.125C11.6875 15.3073 11.7599 15.4822 11.8889 15.6111C12.0178 15.7401 12.1927 15.8125 12.375 15.8125Z" fill="#1B2535"/>
<path d="M17.875 13.0625H15.8125V12.375C15.8125 12.1927 15.7401 12.0178 15.6111 11.8889C15.4822 11.7599 15.3073 11.6875 15.125 11.6875C14.9427 11.6875 14.7678 11.7599 14.6389 11.8889C14.5099 12.0178 14.4375 12.1927 14.4375 12.375V17.1875H12.375C12.1927 17.1875 12.0178 17.2599 11.8889 17.3889C11.7599 17.5178 11.6875 17.6927 11.6875 17.875C11.6875 18.0573 11.7599 18.2322 11.8889 18.3611C12.0178 18.4901 12.1927 18.5625 12.375 18.5625H15.125C15.3073 18.5625 15.4822 18.4901 15.6111 18.3611C15.7401 18.2322 15.8125 18.0573 15.8125 17.875V14.4375H17.875C18.0573 14.4375 18.2322 14.3651 18.3611 14.2361C18.4901 14.1072 18.5625 13.9323 18.5625 13.75C18.5625 13.5677 18.4901 13.3928 18.3611 13.2639C18.2322 13.1349 18.0573 13.0625 17.875 13.0625Z" fill="#1B2535"/>
<path d="M17.875 15.8125C17.6927 15.8125 17.5178 15.8849 17.3889 16.0139C17.2599 16.1428 17.1875 16.3177 17.1875 16.5V17.875C17.1875 18.0573 17.2599 18.2322 17.3889 18.3611C17.5178 18.4901 17.6927 18.5625 17.875 18.5625C18.0573 18.5625 18.2322 18.4901 18.3611 18.3611C18.4901 18.2322 18.5625 18.0573 18.5625 17.875V16.5C18.5625 16.3177 18.4901 16.1428 18.3611 16.0139C18.2322 15.8849 18.0573 15.8125 17.875 15.8125Z" fill="#1B2535"/>
</g>
<defs>
<clipPath id="clip0_1_1014">
<rect width="22" height="22" fill="white"/>
</clipPath>
</defs>
</svg>
