<svg width="14" height="9" viewBox="0 0 14 9" fill="none" xmlns="http://www.w3.org/2000/svg">
<path d="M13.3461 0.966826C13.1164 0.808609 12.821 0.732436 12.5243 0.754901C12.2275 0.777366 11.9534 0.896649 11.7617 1.08676L7.00002 5.84778L2.23827 1.08684C2.04712 0.895981 1.77281 0.776217 1.47569 0.753895C1.17858 0.731574 0.882992 0.808524 0.65396 0.967818C0.424927 1.12711 0.28121 1.3557 0.254424 1.6033C0.227639 1.85089 0.319979 2.09722 0.511131 2.28808L6.13645 7.91333C6.24198 8.01878 6.37403 8.10362 6.52326 8.16184C6.67248 8.22007 6.83524 8.25024 7.00002 8.25024C7.16479 8.25024 7.32755 8.22007 7.47678 8.16184C7.62601 8.10362 7.75806 8.01878 7.86359 7.91333L13.4889 2.288C13.68 2.09694 13.7723 1.8505 13.7455 1.60279C13.7187 1.35508 13.5751 1.12635 13.3461 0.966826Z" fill="white"/>
</svg>
