<svg width="22" height="22" viewBox="0 0 22 22" fill="none" xmlns="http://www.w3.org/2000/svg">
<g clip-path="url(#clip0_1_991)">
<path d="M19.5 13.7499V13.75V17.875V18.125H19.25H2.75H2.5V17.875V13.75C2.5 13.4516 2.38147 13.1655 2.1705 12.9545M19.5 13.7499L2.1705 12.9545M19.5 13.7499C19.4999 13.6021 19.529 13.4558 19.5855 13.3193C19.642 13.1828 19.7248 13.0587 19.8293 12.9543C19.9337 12.8498 20.0578 12.767 20.1943 12.7105L20.0987 12.4795L20.1943 12.7105C20.3308 12.654 20.4771 12.6249 20.6249 12.625L20.6251 12.625M19.5 13.7499L20.6251 12.625M2.1705 12.9545C1.95952 12.7435 1.67337 12.625 1.375 12.625C1.07663 12.625 0.790483 12.7435 0.579505 12.9545C0.368527 13.1655 0.25 13.4516 0.25 13.75V19.25M2.1705 12.9545L0.25 19.25M20.6251 12.625C20.7729 12.6249 20.9192 12.654 21.0557 12.7105C21.1922 12.767 21.3163 12.8498 21.4207 12.9543C21.5252 13.0587 21.608 13.1828 21.6645 13.3193C21.721 13.4558 21.7501 13.6021 21.75 13.7499V13.75V19.25V19.2501C21.7501 19.3979 21.721 19.5442 21.6645 19.6807C21.608 19.8172 21.5252 19.9413 21.4207 20.0457C21.3163 20.1502 21.1922 20.233 21.0557 20.2895C20.9192 20.346 20.7729 20.3751 20.6251 20.375H20.625H1.375H1.37486C1.22712 20.3751 1.08081 20.346 0.944295 20.2895C0.807784 20.233 0.683747 20.1502 0.579277 20.0457C0.474807 19.9413 0.391954 19.8172 0.335454 19.6807C0.278955 19.5442 0.249916 19.3979 0.25 19.2501V19.25M20.6251 12.625L0.25 19.25M1.375 20.625H20.625C20.8056 20.6251 20.9844 20.5896 21.1513 20.5205C21.3182 20.4515 21.4698 20.3502 21.5975 20.2225C21.7252 20.0948 21.8265 19.9432 21.8955 19.7763C21.9646 19.6094 22.0001 19.4306 22 19.25V13.75L1.375 20.625Z" fill="#1B2535" stroke="white" stroke-width="0.5"/>
<path d="M10.2047 14.5454L10.2046 14.5454L6.08012 10.4209C6.08002 10.4208 6.07992 10.4207 6.07982 10.4206C5.87003 10.2095 5.75246 9.92379 5.75287 9.62614C5.75328 9.32835 5.87176 9.04288 6.08233 8.83231C6.2929 8.62174 6.57838 8.50326 6.87617 8.50284C7.17384 8.50243 7.45954 8.62002 7.67067 8.82985C7.67075 8.82994 7.67083 8.83002 7.67091 8.8301L9.44825 10.6074L9.87503 11.0342V10.4307V2.75C9.87503 2.45163 9.99355 2.16548 10.2045 1.9545C10.4155 1.74353 10.7017 1.625 11 1.625C11.2984 1.625 11.5845 1.74353 11.7955 1.9545C12.0065 2.16548 12.125 2.45163 12.125 2.75V10.4307V11.0342L12.5518 10.6074L14.3291 8.8301C14.3292 8.82999 14.3294 8.82989 14.3295 8.82978C14.5406 8.62 14.8262 8.50243 15.1239 8.50284C15.4217 8.50326 15.7072 8.62174 15.9177 8.83231C16.1283 9.04288 16.2468 9.32835 16.2472 9.62614C16.2476 9.92378 16.13 10.2094 15.9202 10.4206C15.9201 10.4207 15.92 10.4208 15.9199 10.4209L11.7954 14.5454L11.7954 14.5454C11.6909 14.6499 11.567 14.7328 11.4305 14.7893C11.294 14.8459 11.1477 14.875 11 14.875C10.8523 14.875 10.706 14.8459 10.5696 14.7893C10.4331 14.7328 10.3091 14.6499 10.2047 14.5454Z" fill="#1B2535" stroke="white" stroke-width="0.5"/>
</g>
<defs>
<clipPath id="clip0_1_991">
<rect width="22" height="22" fill="white"/>
</clipPath>
</defs>
</svg>
