<svg width="14" height="9" viewBox="0 0 14 9" fill="none" xmlns="http://www.w3.org/2000/svg">
<path d="M13.3461 0.966811C13.1164 0.808594 12.821 0.732421 12.5243 0.754886C12.2275 0.777351 11.9534 0.896633 11.7617 1.08675L7.00002 5.84776L2.23827 1.08683C2.04712 0.895966 1.77281 0.776201 1.47569 0.75388C1.17858 0.731559 0.882992 0.808509 0.65396 0.967803C0.424927 1.1271 0.28121 1.35568 0.254424 1.60328C0.227639 1.85088 0.319979 2.0972 0.511131 2.28806L6.13645 7.91331C6.24198 8.01877 6.37403 8.10361 6.52326 8.16183C6.67248 8.22005 6.83525 8.25023 7.00002 8.25023C7.16479 8.25023 7.32755 8.22005 7.47678 8.16183C7.62601 8.10361 7.75806 8.01877 7.86359 7.91331L13.4889 2.28798C13.68 2.09693 13.7723 1.85048 13.7455 1.60277C13.7187 1.35506 13.5751 1.12633 13.3461 0.966811Z" fill="#1B2535"/>
</svg>
