<svg width="22" height="20" viewBox="0 0 22 20" fill="none" xmlns="http://www.w3.org/2000/svg">
<path d="M19.5 12.7499V12.75V16.875V17.125H19.25H2.75H2.5V16.875V12.75C2.5 12.4516 2.38147 12.1655 2.1705 11.9545M19.5 12.7499L2.1705 11.9545M19.5 12.7499C19.4999 12.6021 19.529 12.4558 19.5855 12.3193C19.642 12.1828 19.7248 12.0587 19.8293 11.9543C19.9337 11.8498 20.0578 11.767 20.1943 11.7105L20.0987 11.4795L20.1943 11.7105C20.3308 11.654 20.4771 11.6249 20.6249 11.625L20.6251 11.625M19.5 12.7499L20.6251 11.625M2.1705 11.9545C1.95952 11.7435 1.67337 11.625 1.375 11.625C1.07663 11.625 0.790483 11.7435 0.579505 11.9545C0.368527 12.1655 0.25 12.4516 0.25 12.75V18.25M2.1705 11.9545L0.25 18.25M20.6251 11.625C20.7729 11.6249 20.9192 11.654 21.0557 11.7105C21.1922 11.767 21.3163 11.8498 21.4207 11.9543C21.5252 12.0587 21.608 12.1828 21.6645 12.3193C21.721 12.4558 21.7501 12.6021 21.75 12.7499V12.75V18.25V18.2501C21.7501 18.3979 21.721 18.5442 21.6645 18.6807C21.608 18.8172 21.5252 18.9413 21.4207 19.0457C21.3163 19.1502 21.1922 19.233 21.0557 19.2895C20.9192 19.346 20.7729 19.3751 20.6251 19.375H20.625H1.375H1.37486C1.22712 19.3751 1.08081 19.346 0.944295 19.2895C0.807784 19.233 0.683747 19.1502 0.579277 19.0457C0.474807 18.9413 0.391954 18.8172 0.335454 18.6807C0.278955 18.5442 0.249916 18.3979 0.25 18.2501V18.25M20.6251 11.625L0.25 18.25M1.375 19.625H20.625C20.8056 19.6251 20.9844 19.5896 21.1513 19.5205C21.3182 19.4515 21.4698 19.3502 21.5975 19.2225C21.7252 19.0948 21.8265 18.9432 21.8955 18.7763C21.9646 18.6094 22.0001 18.4306 22 18.25V12.75L1.375 19.625Z" fill="#1B2535" stroke="white" stroke-width="0.5"/>
<path d="M10.2046 13.5454L10.2046 13.5454L6.08006 9.42089C6.07996 9.42079 6.07986 9.42068 6.07976 9.42058C5.86997 9.20946 5.75239 8.92379 5.75281 8.62614C5.75322 8.32835 5.8717 8.04288 6.08227 7.83231C6.29284 7.62174 6.57832 7.50326 6.87611 7.50284C7.17378 7.50243 7.45948 7.62002 7.67061 7.82985C7.67069 7.82994 7.67077 7.83002 7.67085 7.8301L9.44819 9.60743L9.87497 10.0342V9.43066V1.75C9.87497 1.45163 9.99349 1.16548 10.2045 0.954505C10.4154 0.743526 10.7016 0.625 11 0.625C11.2983 0.625 11.5845 0.743526 11.7955 0.954505C12.0064 1.16548 12.125 1.45163 12.125 1.75V9.43066V10.0342L12.5517 9.60743L14.3291 7.8301C14.3292 7.82999 14.3293 7.82989 14.3294 7.82978C14.5405 7.62 14.8262 7.50243 15.1238 7.50284C15.4216 7.50326 15.7071 7.62174 15.9177 7.83231C16.1282 8.04288 16.2467 8.32835 16.2471 8.62614C16.2475 8.92378 16.13 9.20944 15.9202 9.42057C15.9201 9.42067 15.92 9.42078 15.9199 9.42089L11.7954 13.5454L11.7953 13.5454C11.6909 13.6499 11.5669 13.7328 11.4304 13.7893C11.294 13.8459 11.1477 13.875 11 13.875C10.8522 13.875 10.706 13.8459 10.5695 13.7893C10.433 13.7328 10.309 13.6499 10.2046 13.5454Z" fill="#1B2535" stroke="white" stroke-width="0.5"/>
</svg>
