<svg width="19" height="17" viewBox="0 0 19 17" fill="none" xmlns="http://www.w3.org/2000/svg">
<path d="M18.5661 1.04775C18.3489 0.57525 17.8889 0.28125 17.3658 0.28125H1.63422C1.11118 0.28125 0.651153 0.57525 0.433278 1.04775C0.217372 1.51631 0.292184 2.05181 0.628184 2.44425L0.628841 2.44491L6.87503 9.71222V15.375C6.87503 15.6172 7.00825 15.8396 7.22153 15.9538C7.31865 16.0057 7.42497 16.0312 7.53128 16.0312C7.65859 16.0312 7.78525 15.9938 7.8955 15.921L11.833 13.296C12.0154 13.1739 12.125 12.9692 12.125 12.75V9.71222L18.3719 2.44491C18.7079 2.05181 18.7827 1.51631 18.5661 1.04775Z" fill="#1B2535"/>
</svg>
