<svg width="106" height="56" viewBox="0 0 106 56" fill="none" xmlns="http://www.w3.org/2000/svg">
<path d="M15.529 30.902L27.3955 0.154373H31.058L15.529 40.2905L0 0.154373H3.65997L15.529 30.902Z" fill="#FFFBF4"/>
<path d="M49.4235 36.4354C46.688 38.9692 43.4043 40.2362 39.5751 40.2362C35.7459 40.2362 32.6719 39.0265 29.9794 36.6049C27.2868 34.1856 25.9405 31.3104 25.9405 27.9816C25.9405 24.6528 27.2868 21.6859 29.9794 19.3033C32.6719 16.9206 35.8697 15.7293 39.5751 15.7293C43.2806 15.7293 46.688 16.9962 49.4235 19.5301L53.2097 15.8988V40.0071L49.4235 36.4331V36.4354ZM39.5751 18.8496C36.7133 18.8496 34.3036 19.7294 32.3461 21.4866C30.3886 23.2461 29.4111 25.4111 29.4111 27.9816C29.4111 30.5521 30.3911 32.7171 32.3461 34.4766C34.3036 36.2361 36.7108 37.1135 39.5751 37.1135C42.4394 37.1135 44.7936 36.2246 46.7713 34.4468C48.7491 32.669 49.7392 30.5131 49.7392 27.9793C49.7392 25.4454 48.7491 23.2896 46.7713 21.5118C44.7936 19.734 42.394 18.845 39.5751 18.845V18.8496Z" fill="#FFFBF4"/>
<path d="M45.8267 50.7123C47.0896 51.9724 48.7087 52.6024 50.6864 52.6024C52.4545 52.6024 53.9903 52.048 55.2936 50.9414C56.5969 49.8349 57.2511 48.403 57.2511 46.6481V15.6714H60.7242V46.6481C60.7242 49.1682 59.7442 51.3149 57.7892 53.0904C55.8316 54.8659 53.4649 55.7525 50.6864 55.7525C47.6554 55.7525 45.1523 54.7399 43.1745 52.717L45.8267 50.7123Z" fill="#FFFBF4"/>
<path d="M78.2714 16.302L76.6928 19.1085C76.1876 18.9573 75.5764 18.8794 74.8615 18.8794C72.9242 18.8794 71.3354 19.4705 70.0952 20.6549C68.8525 21.8394 68.2337 23.2507 68.2337 24.891V40.2362H64.7606V16.3593L67.6654 18.4785C69.6002 16.6457 71.9997 15.7293 74.8615 15.7293C76.1245 15.7293 77.2611 15.9194 78.2689 16.302H78.2714Z" fill="#FFFBF4"/>
<path d="M101.628 36.4348C98.8926 38.9686 95.6089 40.2355 91.7797 40.2355C87.9505 40.2355 84.8765 39.0259 82.184 36.6043C79.4914 34.185 78.1451 31.3098 78.1451 27.981C78.1451 24.6521 79.4914 21.6853 82.184 19.3026C84.8765 16.92 88.0743 15.7286 91.7797 15.7286C95.4852 15.7286 98.8926 16.9956 101.628 19.5294L105.414 15.6714V40.2355L101.628 36.4348ZM91.7797 18.849C88.9179 18.849 86.5082 19.7287 84.5507 21.4859C82.5932 23.2454 81.6157 25.4104 81.6157 27.981C81.6157 30.5515 82.5957 32.7188 84.5507 34.476C86.5082 36.2354 88.9154 37.1129 91.7797 37.1129C94.644 37.1129 96.9982 36.224 98.9759 34.4462C100.954 32.6684 101.944 30.5125 101.944 27.9787C101.944 25.4448 100.954 23.289 98.9759 21.5111C96.9982 19.7333 94.5986 18.8444 91.7797 18.8444V18.849Z" fill="#FFFBF4"/>
<path d="M64.7606 50.1901H69.3147L70.56 46.6941L71.9038 51.8946L73.49 48.268L74.7479 49.7594L76.4958 43.2323L78.3725 53.086L79.8097 46.8086L81.209 50.1901H105.245" stroke="#FFFBF4" stroke-miterlimit="10"/>
<path d="M58.9738 0.03125V0.283261L58.8348 0.521525L58.7262 0.503197L58.9738 0.03125Z" fill="#FFFBF4"/>
<path d="M58.7262 0.503067L58.9738 0.69093V0.622199L58.8374 0.521395L58.7262 0.503067Z" fill="#FFFBF4"/>
<path d="M58.9745 0.367645L58.8829 0.509688L58.9745 0.564672V0.367645Z" fill="#FFFBF4"/>
<path d="M58.7817 0.615479C58.7817 0.615479 58.8423 0.993495 58.812 1.38755C58.812 1.38755 58.812 1.85033 58.6731 2.13212H58.7969L58.9358 1.96488V0.727738L58.7817 0.615479Z" fill="#FFFBF4"/>
<path d="M58.9747 1.99686L58.85 2.13661H58.9747V1.99686Z" fill="#FFFBF4"/>
<path d="M58.9747 2.3203L58.85 2.17825H58.9747V2.3203Z" fill="#FFFBF4"/>
<path d="M58.6656 2.17825H58.7894L58.9435 2.36153V3.27335H58.6808C58.6808 3.27335 58.7742 3.03509 58.7591 2.57231C58.7591 2.57231 58.7439 2.3203 58.6656 2.18054V2.17825Z" fill="#FFFBF4"/>
<path d="M58.2313 0.0476074C58.2313 0.0476074 58.3399 0.308782 58.2313 0.510391C58.2313 0.510391 58.1151 0.698253 57.8448 0.789894L57.9231 0.902153C57.9231 0.902153 58.4333 0.663888 58.4637 0.398131C58.4637 0.398131 58.5091 0.146121 58.2313 0.0476074Z" fill="#FFFBF4"/>
<path d="M57.7992 0.986376C57.7992 0.986376 57.923 0.915355 57.8447 0.846625C57.8447 0.846625 57.7058 0.748112 57.5365 0.846625C57.5365 0.846625 57.4431 0.917646 57.5517 0.986376C57.5517 0.986376 57.6123 1.08489 57.5062 1.02761C57.5062 1.02761 57.3522 0.915355 57.1501 1.04136C57.1501 1.04136 56.948 1.18111 57.0895 1.3369C57.0895 1.3369 57.1349 1.37356 57.2284 1.36439C57.2284 1.36439 57.2789 1.42625 57.1829 1.41938C57.1829 1.41938 56.8899 1.33461 56.703 1.6439C56.703 1.6439 56.5489 1.90965 56.9202 1.99442C56.9202 1.99442 57.0137 2.04024 56.9202 2.0494C56.9202 2.0494 56.4883 1.96464 56.4403 2.35869C56.4403 2.35869 56.3949 2.63819 56.7485 2.69547C56.7485 2.69547 56.8419 2.73671 56.7485 2.75045C56.7485 2.75045 56.2383 2.73671 56.2534 3.27051C56.2534 3.27051 56.2686 3.63478 56.6399 3.7058C56.6399 3.7058 56.996 3.74704 57.0895 3.41026C57.0895 3.41026 56.6727 3.52252 56.6727 3.21323C56.6727 3.21323 56.6727 3.04599 56.9505 3.02995C56.9505 3.02995 57.1349 3.01621 57.3219 3.29571L57.4153 3.44921L57.5997 3.39422C57.5997 3.39422 57.1501 2.90395 57.1829 2.28538C57.1829 2.28538 57.1375 1.57058 57.8018 0.981794L57.7992 0.986376Z" fill="#FFFBF4"/>
<path d="M58.4937 0.466446C58.4937 0.466446 58.4154 0.690965 58.1376 0.830716C58.1376 0.830716 57.5642 1.04149 57.3344 1.77003C57.3344 1.77003 56.9631 2.52835 57.6425 3.36915L57.8446 3.34166C57.8446 3.34166 57.4733 3.03237 57.4733 2.48482C57.4733 2.48482 57.4581 1.86854 57.9835 1.86854C57.9835 1.86854 58.2159 1.8548 58.3093 2.10681C58.3093 2.10681 58.37 2.27405 58.2942 2.42984C58.2942 2.42984 58.572 2.35882 58.5872 2.06557C58.5872 2.06557 58.6023 1.68755 58.231 1.60279C58.231 1.60279 57.7991 1.58904 57.8446 1.33703C57.8446 1.33703 57.8294 1.19728 58.1527 0.945266C58.1527 0.945266 58.4609 0.734494 58.4937 0.468737V0.466446Z" fill="#FFFBF4"/>
<path d="M57.5366 2.55809C57.5366 2.55809 57.5366 3.03462 57.9231 3.34391L58.1555 3.31641C58.1555 3.31641 57.6604 3.05066 57.5366 2.55809Z" fill="#FFFBF4"/>
<path d="M58.9762 3.30072C58.9762 3.30072 58.0316 3.32821 57.3521 3.49775C57.3521 3.49775 57.1677 3.56877 57.2283 3.72227C57.2283 3.72227 57.2586 3.86202 57.4607 3.83452C57.4607 3.83452 58.2185 3.65124 58.9788 3.65124V3.30072H58.9762Z" fill="#FFFBF4"/>
<path d="M58.7742 3.70866L58.5898 3.80718L58.4661 3.72241C58.4661 3.72241 58.6353 3.70866 58.7742 3.70866Z" fill="#FFFBF4"/>
<path d="M58.2488 3.94681C58.2488 3.94681 58.2791 3.83455 58.3574 3.80706C58.3574 3.80706 58.4029 3.8208 58.4812 3.89182L58.5747 3.8208C58.5747 3.8208 58.466 3.73604 58.3423 3.72229C58.3423 3.72229 58.2337 3.74978 58.173 3.87579L58.2514 3.94681H58.2488Z" fill="#FFFBF4"/>
<path d="M58.2311 3.73592L58.1376 3.86192L57.9987 3.77715C57.9987 3.77715 58.1224 3.74966 58.2311 3.73592Z" fill="#FFFBF4"/>
<path d="M58.3873 3.86199C58.3873 3.86199 58.3571 3.84824 58.327 3.87573C58.327 3.87573 58.2968 3.91697 58.2968 3.98799C58.2968 3.98799 58.2968 4.01549 58.327 4.04298L58.4049 4.14149C58.4049 4.14149 58.3747 4.08651 58.4199 4.00174C58.4199 4.00174 58.4652 3.9605 58.4501 3.91697C58.4501 3.91697 58.435 3.88948 58.3898 3.86199H58.3873Z" fill="#FFFBF4"/>
<path d="M57.4735 3.87519C57.4735 3.87519 57.6907 3.80417 57.9231 3.79042C57.9231 3.79042 58.4333 3.95766 58.5267 4.64726L58.403 4.661C58.403 4.661 58.2944 4.2532 58.0468 4.07221C58.0468 4.07221 57.8448 3.90497 57.4911 3.91872L57.476 3.87748L57.4735 3.87519Z" fill="#FFFBF4"/>
<path d="M57.2587 4.14404C57.2587 4.14404 57.2738 3.96075 57.5997 3.96075C57.5997 3.96075 57.9407 3.98825 58.1251 4.21277C58.1251 4.21277 58.2791 4.40979 58.3574 4.67555L58.264 4.68929C58.264 4.68929 58.2185 4.54954 58.1402 4.46478C58.1402 4.46478 58.0796 4.42354 58.0947 4.49227C58.0947 4.49227 58.1731 4.60453 58.2185 4.70304L58.1251 4.73053C58.1251 4.73053 57.9861 4.46478 57.7689 4.32273L57.8295 4.26775C57.8295 4.26775 57.8447 4.22651 57.7992 4.24026C57.7992 4.24026 57.7209 4.36626 57.5062 4.35252C57.5062 4.35252 57.2435 4.33877 57.2587 4.14174V4.14404Z" fill="#FFFBF4"/>
<path d="M58.9763 3.70866C58.9763 3.70866 58.8197 3.70866 58.6353 3.83467C58.6353 3.83467 58.4661 3.93318 58.4509 4.1577C58.4509 4.1577 58.4509 4.24247 58.5115 4.39597C58.5115 4.39597 58.5722 4.52197 58.5722 4.63423H58.7566C58.7566 4.63423 58.6479 4.46699 58.6479 4.28371C58.6479 4.28371 58.6328 3.97442 58.9738 3.86216V3.70866H58.9763Z" fill="#FFFBF4"/>
<path d="M58.9815 4.67528V5.01206C58.9815 5.01206 58.5243 4.99831 58.1707 5.12431C58.1707 5.12431 57.9863 5.20908 57.908 5.06933C57.908 5.06933 57.8145 4.94333 57.9863 4.83107C57.9863 4.83107 58.3348 4.67757 58.984 4.67757L58.9815 4.67528Z" fill="#FFFBF4"/>
<path d="M58.8652 4.62019H58.8045C58.8045 4.62019 58.7111 4.48044 58.7111 4.26967C58.7111 4.26967 58.7262 4.00391 58.9763 3.9054V4.00391C58.9763 4.00391 58.7742 4.10242 58.7742 4.32694C58.7742 4.32694 58.7742 4.48044 58.8677 4.62248L58.8652 4.62019Z" fill="#FFFBF4"/>
<path d="M58.9731 4.04506V4.22834C58.9731 4.22834 58.9278 4.22834 58.9278 4.28332V4.6201C58.9278 4.6201 58.8499 4.50784 58.8349 4.32456C58.8349 4.32456 58.8424 4.12754 58.9731 4.04506Z" fill="#FFFBF4"/>
<path d="M58.9738 0.03125V0.285552L59.1228 0.507779L59.2264 0.512361L58.9738 0.03125Z" fill="#FFFBF4"/>
<path d="M59.2264 0.512488L58.9738 0.691187V0.622457L59.1279 0.505615L59.2264 0.512488Z" fill="#FFFBF4"/>
<path d="M58.9738 0.367645L59.068 0.509688L58.9738 0.564672V0.367645Z" fill="#FFFBF4"/>
<path d="M59.1682 0.615479C59.1682 0.615479 59.1076 0.993495 59.1379 1.38755C59.1379 1.38755 59.1379 1.85033 59.2768 2.13212H59.1531L59.0141 1.96488V0.727738L59.1682 0.615479Z" fill="#FFFBF4"/>
<path d="M58.9738 1.99686L59.0985 2.13661H58.9738V1.99686Z" fill="#FFFBF4"/>
<path d="M58.9738 2.3203L59.0985 2.17825H58.9738V2.3203Z" fill="#FFFBF4"/>
<path d="M59.2845 2.17825H59.1608L59.0067 2.36153V3.27335H59.2694C59.2694 3.27335 59.1759 3.03509 59.1911 2.57231C59.1911 2.57231 59.2062 2.3203 59.2845 2.18054V2.17825Z" fill="#FFFBF4"/>
<path d="M59.7165 0.0476074C59.7165 0.0476074 59.6078 0.285872 59.7165 0.510391C59.7165 0.510391 59.8251 0.693671 60.1029 0.789894L60.0246 0.902153C60.0246 0.902153 59.5144 0.663888 59.4841 0.398131C59.4841 0.398131 59.4386 0.146121 59.7165 0.0476074Z" fill="#FFFBF4"/>
<path d="M60.1509 0.986376C60.1509 0.986376 60.0272 0.915355 60.1055 0.846625C60.1055 0.846625 60.2444 0.748112 60.4136 0.846625C60.4136 0.846625 60.5071 0.917646 60.3985 0.986376C60.3985 0.986376 60.3378 1.08489 60.4439 1.02761C60.4439 1.02761 60.598 0.915355 60.8001 1.04136C60.8001 1.04136 61.0021 1.18111 60.8607 1.3369C60.8607 1.3369 60.8001 1.36439 60.7218 1.36439C60.7218 1.36439 60.6763 1.41938 60.7672 1.41938C60.7672 1.41938 61.0602 1.33461 61.2471 1.6439C61.2471 1.6439 61.4012 1.90965 61.0299 1.99442C61.0299 1.99442 60.9365 2.02191 61.0299 2.0494C61.0299 2.0494 61.4618 1.96464 61.5098 2.35869C61.5098 2.35869 61.5553 2.63819 61.2017 2.69547C61.2017 2.69547 61.1082 2.73671 61.2017 2.75045C61.2017 2.75045 61.7119 2.73671 61.6967 3.27051C61.6967 3.27051 61.6816 3.63478 61.3103 3.7058C61.3103 3.7058 60.9541 3.74704 60.8607 3.41026C60.8607 3.41026 61.2775 3.52252 61.2775 3.21323C61.2775 3.21323 61.2775 3.04599 60.9996 3.02995C60.9996 3.02995 60.8152 3.01621 60.6283 3.29571L60.5349 3.44921L60.3505 3.39422C60.3505 3.39422 60.8001 2.90395 60.7672 2.28538C60.7672 2.28538 60.8127 1.57058 60.1484 0.981794L60.1509 0.986376Z" fill="#FFFBF4"/>
<path d="M59.4536 0.466446C59.4536 0.466446 59.5319 0.690965 59.8098 0.830716C59.8098 0.830716 60.3832 1.04149 60.613 1.77003C60.613 1.77003 60.9843 2.52835 60.3048 3.36915L60.1028 3.34166C60.1028 3.34166 60.4741 3.03237 60.4741 2.48482C60.4741 2.48482 60.4892 1.86854 59.9639 1.86854C59.9639 1.86854 59.7315 1.8548 59.638 2.10681C59.638 2.10681 59.5774 2.27405 59.6532 2.42984C59.6532 2.42984 59.3753 2.35882 59.3602 2.06557C59.3602 2.06557 59.345 1.68755 59.7163 1.60279C59.7163 1.60279 60.1482 1.58904 60.1028 1.33703C60.1028 1.33703 60.1179 1.19728 59.7946 0.945266C59.7946 0.945266 59.4865 0.734494 59.4536 0.468737V0.466446Z" fill="#FFFBF4"/>
<path d="M60.4135 2.55809C60.4135 2.55809 60.4135 3.03462 60.027 3.34391L59.7946 3.31641C59.7946 3.31641 60.2897 3.05066 60.4135 2.55809Z" fill="#FFFBF4"/>
<path d="M58.9764 3.30072C58.9764 3.30072 59.9185 3.32821 60.598 3.49775C60.598 3.49775 60.7824 3.56877 60.7217 3.72227C60.7217 3.72227 60.6914 3.86202 60.4894 3.83452C60.4894 3.83452 59.7316 3.65124 58.9764 3.65124V3.30072Z" fill="#FFFBF4"/>
<path d="M59.1759 3.70866L59.3603 3.80718L59.4841 3.72241C59.4841 3.72241 59.3148 3.70866 59.1759 3.70866Z" fill="#FFFBF4"/>
<path d="M59.7013 3.94681C59.7013 3.94681 59.671 3.83455 59.5927 3.80706C59.5927 3.80706 59.5472 3.8208 59.4689 3.89182L59.3755 3.8208C59.3755 3.8208 59.4841 3.73604 59.6079 3.72229C59.6079 3.72229 59.7165 3.74978 59.7771 3.87579L59.6988 3.94681H59.7013Z" fill="#FFFBF4"/>
<path d="M59.7163 3.73592L59.8098 3.86192L59.9487 3.77715C59.9487 3.77715 59.8249 3.74966 59.7163 3.73592Z" fill="#FFFBF4"/>
<path d="M59.5619 3.86199C59.5619 3.86199 59.592 3.84824 59.6222 3.87573C59.6222 3.87573 59.6523 3.91697 59.6523 3.98799C59.6523 3.98799 59.6523 4.01549 59.6222 4.04298L59.5443 4.14149C59.5443 4.14149 59.5744 4.08651 59.5292 4.00174C59.5292 4.00174 59.484 3.9605 59.4991 3.91697C59.4991 3.91697 59.5142 3.88948 59.5594 3.86199H59.5619Z" fill="#FFFBF4"/>
<path d="M60.4742 3.87519C60.4742 3.87519 60.257 3.80417 60.0246 3.79042C60.0246 3.79042 59.5144 3.95766 59.4209 4.64726L59.5447 4.661C59.5447 4.661 59.6533 4.2532 59.9008 4.07221C59.9008 4.07221 60.1029 3.90497 60.4565 3.91872L60.4717 3.87748L60.4742 3.87519Z" fill="#FFFBF4"/>
<path d="M60.6913 4.14404C60.6913 4.14404 60.6761 3.96075 60.3503 3.96075C60.3503 3.96075 60.0093 3.98825 59.8249 4.21277C59.8249 4.21277 59.6708 4.40979 59.5925 4.67555L59.686 4.68929C59.686 4.68929 59.7314 4.54954 59.8097 4.46478C59.8097 4.46478 59.8704 4.42354 59.8552 4.49227C59.8552 4.49227 59.7769 4.60453 59.7314 4.70304L59.8249 4.73053C59.8249 4.73053 59.9638 4.46478 60.181 4.32273L60.1204 4.26775C60.1204 4.26775 60.1053 4.22651 60.1507 4.24026C60.1507 4.24026 60.229 4.36626 60.4437 4.35252C60.4437 4.35252 60.7064 4.33877 60.6913 4.14174V4.14404Z" fill="#FFFBF4"/>
<path d="M58.9764 3.70866C58.9764 3.70866 59.1305 3.70866 59.3148 3.83467C59.3148 3.83467 59.4841 3.93318 59.4992 4.1577C59.4992 4.1577 59.4992 4.24247 59.4386 4.39597C59.4386 4.39597 59.378 4.52197 59.378 4.63423H59.1936C59.1936 4.63423 59.3022 4.46699 59.3022 4.28371C59.3022 4.28371 59.3174 3.97442 58.9789 3.86216V3.70866H58.9764Z" fill="#FFFBF4"/>
<path d="M58.9661 4.67528V5.01206C58.9661 5.01206 59.4207 4.99831 59.7769 5.12431C59.7769 5.12431 59.9613 5.20908 60.0396 5.06933C60.0396 5.06933 60.133 4.94333 59.9613 4.83107C59.9613 4.83107 59.6127 4.67757 58.9636 4.67757L58.9661 4.67528Z" fill="#FFFBF4"/>
<path d="M59.0825 4.61992H59.1431C59.1431 4.61992 59.2365 4.48017 59.2365 4.26939C59.2365 4.26939 59.2214 4.00364 58.9764 3.90283V4.00135C58.9764 4.00135 59.1759 4.09986 59.1759 4.32438C59.1759 4.32438 59.1759 4.47787 59.0825 4.61992Z" fill="#FFFBF4"/>
<path d="M58.9738 4.04309V4.22637C58.9738 4.22637 59.0215 4.22637 59.0215 4.28136V4.61814C59.0215 4.61814 59.0994 4.50588 59.1145 4.3226C59.1145 4.3226 59.0994 4.12557 58.9763 4.0408L58.9738 4.04309Z" fill="#FFFBF4"/>
<path d="M66.4102 6.77989H66.1323L65.9302 6.66764V6.56912L66.4102 6.77989Z" fill="#FFFBF4"/>
<path d="M65.8761 6.58955L65.7053 6.78658H65.7832L65.8761 6.67432V6.58955Z" fill="#FFFBF4"/>
<path d="M66.0614 6.78673L65.9074 6.70197L65.8442 6.78673H66.0614Z" fill="#FFFBF4"/>
<path d="M65.7913 6.61057C65.7913 6.61057 65.3745 6.66555 64.94 6.63806C64.94 6.63806 64.4298 6.63806 64.1191 6.51205V6.62431L64.3035 6.75032H65.665L65.7887 6.61057H65.7913Z" fill="#FFFBF4"/>
<path d="M64.2673 6.78697L64.114 6.67471V6.78697H64.2673Z" fill="#FFFBF4"/>
<path d="M63.9119 6.78697L64.0652 6.67471V6.78697H63.9119Z" fill="#FFFBF4"/>
<path d="M64.066 6.50525V6.61751L63.864 6.75726H62.8587V6.51899C62.8587 6.51899 63.1214 6.60376 63.6316 6.59002C63.6316 6.59002 63.9094 6.57627 64.0635 6.50525H64.066Z" fill="#FFFBF4"/>
<path d="M66.4176 6.11313C66.4176 6.11313 66.1549 6.21164 65.9073 6.11313C65.9073 6.11313 65.7053 6.01461 65.5992 5.7626L65.4754 5.83362C65.4754 5.83362 65.7381 6.29641 66.0311 6.3239C66.0311 6.3239 66.309 6.36514 66.4176 6.11313Z" fill="#FFFBF4"/>
<path d="M65.3821 5.72147C65.3821 5.72147 65.4604 5.83373 65.5362 5.76271C65.5362 5.76271 65.6448 5.63671 65.5362 5.48321C65.5362 5.48321 65.4579 5.39844 65.3821 5.49695C65.3821 5.49695 65.2735 5.55194 65.3367 5.45572C65.3367 5.45572 65.4604 5.31596 65.3215 5.13268C65.3215 5.13268 65.1674 4.9494 64.9957 5.0777C64.9957 5.0777 64.9654 5.13268 64.9654 5.20371C64.9654 5.20371 64.9047 5.24494 64.9047 5.16247C64.9047 5.16247 64.9982 4.89671 64.6572 4.72718C64.6572 4.72718 64.3642 4.58742 64.2707 4.9242C64.2707 4.9242 64.2404 5.00897 64.2101 4.9242C64.2101 4.9242 64.3036 4.53244 63.8691 4.48891C63.8691 4.48891 63.561 4.44767 63.4978 4.76841C63.4978 4.76841 63.4524 4.85318 63.4372 4.76841C63.4372 4.76841 63.4524 4.30563 62.8638 4.31938C62.8638 4.31938 62.4622 4.33312 62.3839 4.6699C62.3839 4.6699 62.3385 4.99293 62.7098 5.0777C62.7098 5.0777 62.586 4.69968 62.927 4.69968C62.927 4.69968 63.1114 4.69968 63.1291 4.95169C63.1291 4.95169 63.1442 5.11894 62.8361 5.28847L62.6668 5.37324L62.7274 5.54048C62.7274 5.54048 63.268 5.13268 63.95 5.16247C63.95 5.16247 64.738 5.12123 65.3872 5.72376L65.3821 5.72147Z" fill="#FFFBF4"/>
<path d="M65.9529 6.3516C65.9529 6.3516 65.7053 6.28058 65.5512 6.02857C65.5512 6.02857 65.3189 5.50851 64.5156 5.30003C64.5156 5.30003 63.6796 4.96325 62.7526 5.57953L62.7829 5.76281C62.7829 5.76281 63.1239 5.42603 63.7276 5.42603C63.7276 5.42603 64.407 5.41229 64.407 5.88882C64.407 5.88882 64.4222 6.09959 64.1443 6.18436C64.1443 6.18436 63.96 6.23934 63.7882 6.17061C63.7882 6.17061 63.8665 6.42262 64.1898 6.43637C64.1898 6.43637 64.6066 6.45011 64.7 6.11334C64.7 6.11334 64.7152 5.72157 64.993 5.76281C64.993 5.76281 65.1471 5.74907 65.425 6.04231C65.425 6.04231 65.6573 6.32182 65.9503 6.3516H65.9529Z" fill="#FFFBF4"/>
<path d="M63.6493 5.48071C63.6493 5.48071 63.1239 5.48071 62.7829 5.83124L62.8132 6.04201C62.8132 6.04201 63.1062 5.59297 63.6493 5.48071Z" fill="#FFFBF4"/>
<path d="M62.831 6.78678C62.831 6.78678 62.8007 5.92994 62.6138 5.31366C62.6138 5.31366 62.5355 5.14642 62.3663 5.2014C62.3663 5.2014 62.2122 5.2289 62.2425 5.41218C62.2425 5.41218 62.4446 6.09948 62.4446 6.78907H62.831V6.78678Z" fill="#FFFBF4"/>
<path d="M62.382 6.60334L62.2726 6.4361L62.3668 6.32384C62.3668 6.32384 62.382 6.47734 62.382 6.60334Z" fill="#FFFBF4"/>
<path d="M62.1187 6.12685C62.1187 6.12685 62.2425 6.15434 62.2728 6.22536C62.2728 6.22536 62.2577 6.2666 62.1794 6.33762L62.2577 6.42239C62.2577 6.42239 62.3511 6.32388 62.3663 6.21162C62.3663 6.21162 62.336 6.1131 62.197 6.05812L62.1187 6.12914V6.12685Z" fill="#FFFBF4"/>
<path d="M62.3502 6.11306L62.212 6.02829L62.305 5.90228C62.305 5.90228 62.3351 6.01454 62.3502 6.11306Z" fill="#FFFBF4"/>
<path d="M62.2122 6.25302C62.2122 6.25302 62.2274 6.22553 62.197 6.19804C62.197 6.19804 62.1516 6.17055 62.0733 6.17055C62.0733 6.17055 62.043 6.17055 62.0127 6.19804L61.904 6.26906C61.904 6.26906 61.9647 6.24157 62.0581 6.28281C62.0581 6.28281 62.1036 6.32405 62.1516 6.3103C62.1516 6.3103 62.1819 6.29655 62.2122 6.25531V6.25302Z" fill="#FFFBF4"/>
<path d="M62.1944 5.42621C62.1944 5.42621 62.2727 5.62324 62.2878 5.83401C62.2878 5.83401 62.1034 6.29679 61.3432 6.38156L61.328 6.2693C61.328 6.2693 61.7776 6.17079 61.9771 5.94627C61.9771 5.94627 62.1615 5.76299 62.1464 5.44225L62.1918 5.4285L62.1944 5.42621Z" fill="#FFFBF4"/>
<path d="M61.9014 5.2292C61.9014 5.2292 62.1035 5.24294 62.1035 5.53848C62.1035 5.53848 62.0732 5.84777 61.8257 6.01501C61.8257 6.01501 61.6084 6.15476 61.3154 6.22578L61.3003 6.14102C61.3003 6.14102 61.4543 6.09978 61.5478 6.02876C61.5478 6.02876 61.5933 5.97377 61.5175 5.98752C61.5175 5.98752 61.3937 6.05854 61.2851 6.09978L61.2548 6.01501C61.2548 6.01501 61.5478 5.889 61.7044 5.69198L61.765 5.74696C61.765 5.74696 61.8105 5.76071 61.7953 5.71947C61.7953 5.71947 61.6564 5.64845 61.6716 5.45371C61.6716 5.45371 61.6867 5.21545 61.904 5.2292H61.9014Z" fill="#FFFBF4"/>
<path d="M62.3813 6.78674C62.3813 6.78674 62.3813 6.6447 62.2424 6.47745C62.2424 6.47745 62.1338 6.32396 61.8863 6.31021C61.8863 6.31021 61.7928 6.31021 61.6236 6.3652C61.6236 6.3652 61.4846 6.42018 61.3609 6.42018V6.58742C61.3609 6.58742 61.5453 6.48891 61.7473 6.48891C61.7473 6.48891 62.0883 6.47516 62.2121 6.78445H62.3813V6.78674Z" fill="#FFFBF4"/>
<path d="M61.3129 6.79338H60.9416C60.9416 6.79338 60.9567 6.3787 60.8178 6.05796C60.8178 6.05796 60.7244 5.89072 60.8784 5.8197C60.8784 5.8197 61.0174 5.73493 61.1411 5.89072C61.1411 5.89072 61.3104 6.20688 61.3104 6.79567L61.3129 6.79338Z" fill="#FFFBF4"/>
<path d="M61.376 6.68843V6.63344C61.376 6.63344 61.5301 6.54868 61.7624 6.54868C61.7624 6.54868 62.0554 6.56242 62.1641 6.78923H62.0554C62.0554 6.78923 61.9468 6.60595 61.6993 6.60595C61.6993 6.60595 61.5301 6.60595 61.3735 6.69072L61.376 6.68843Z" fill="#FFFBF4"/>
<path d="M62.01 6.78709H61.8079C61.8079 6.78709 61.8079 6.74585 61.7473 6.74585H61.376C61.376 6.74585 61.4998 6.67483 61.7019 6.66109C61.7019 6.66109 61.9191 6.66796 62.01 6.78709Z" fill="#FFFBF4"/>
<path d="M66.4102 6.79395H66.1323L65.9302 6.9062V7.00472L66.4102 6.79395Z" fill="#FFFBF4"/>
<path d="M65.8761 6.98417L65.7053 6.78714H65.7832L65.8761 6.8994V6.98417Z" fill="#FFFBF4"/>
<path d="M66.0614 6.78714L65.9074 6.87191L65.8442 6.78714H66.0614Z" fill="#FFFBF4"/>
<path d="M65.7913 6.96095C65.7913 6.96095 65.3745 6.90596 64.94 6.93346C64.94 6.93346 64.4298 6.93346 64.1191 7.05946V6.9472L64.3035 6.8212H65.665L65.7887 6.96095H65.7913Z" fill="#FFFBF4"/>
<path d="M64.2673 6.78714L64.114 6.8994V6.78714H64.2673Z" fill="#FFFBF4"/>
<path d="M63.9119 6.78714L64.0652 6.8994V6.78714H63.9119Z" fill="#FFFBF4"/>
<path d="M64.066 7.0664V6.95414L63.864 6.81439H62.8587V7.05266C62.8587 7.05266 63.1214 6.96789 63.6316 6.98164C63.6316 6.98164 63.9094 6.99538 64.0635 7.0664H64.066Z" fill="#FFFBF4"/>
<path d="M66.4176 7.4603C66.4176 7.4603 66.1549 7.36179 65.9073 7.4603C65.9073 7.4603 65.7053 7.55882 65.5992 7.81083L65.4754 7.73981C65.4754 7.73981 65.7381 7.27702 66.0311 7.24953C66.0311 7.24953 66.309 7.20829 66.4176 7.4603Z" fill="#FFFBF4"/>
<path d="M65.3821 7.85176C65.3821 7.85176 65.4604 7.7395 65.5362 7.81052C65.5362 7.81052 65.6448 7.93653 65.5362 8.09003C65.5362 8.09003 65.4579 8.17479 65.3821 8.07628C65.3821 8.07628 65.2735 8.02129 65.3367 8.11752C65.3367 8.11752 65.4604 8.25727 65.3215 8.44055C65.3215 8.44055 65.1674 8.62383 64.9957 8.49553C64.9957 8.49553 64.9654 8.44055 64.9654 8.36953C64.9654 8.36953 64.9047 8.32829 64.9047 8.41077C64.9047 8.41077 64.9982 8.67652 64.6572 8.84606C64.6572 8.84606 64.3642 8.98581 64.2707 8.64903C64.2707 8.64903 64.2404 8.56426 64.2101 8.64903C64.2101 8.64903 64.3036 9.04079 63.8691 9.08432C63.8691 9.08432 63.561 9.12556 63.4978 8.80482C63.4978 8.80482 63.4524 8.72005 63.4372 8.80482C63.4372 8.80482 63.4524 9.2676 62.8638 9.25386C62.8638 9.25386 62.4622 9.24011 62.3839 8.90333C62.3839 8.90333 62.3385 8.5803 62.7098 8.49553C62.7098 8.49553 62.586 8.87355 62.927 8.87355C62.927 8.87355 63.1114 8.87355 63.1291 8.62154C63.1291 8.62154 63.1442 8.45429 62.8361 8.28476L62.6668 8.19999L62.7274 8.03275C62.7274 8.03275 63.268 8.44055 63.95 8.41077C63.95 8.41077 64.738 8.452 65.3872 7.84947L65.3821 7.85176Z" fill="#FFFBF4"/>
<path d="M65.9529 7.22201C65.9529 7.22201 65.7053 7.29303 65.5512 7.54504C65.5512 7.54504 65.3189 8.0651 64.5156 8.27358C64.5156 8.27358 63.6796 8.61036 62.7526 7.99408L62.7829 7.8108C62.7829 7.8108 63.1239 8.14757 63.7276 8.14757C63.7276 8.14757 64.407 8.16132 64.407 7.68479C64.407 7.68479 64.4222 7.47402 64.1443 7.38925C64.1443 7.38925 63.96 7.33427 63.7882 7.403C63.7882 7.403 63.8665 7.15099 64.1898 7.13724C64.1898 7.13724 64.6066 7.12349 64.7 7.46027C64.7 7.46027 64.7152 7.85203 64.993 7.8108C64.993 7.8108 65.1471 7.82454 65.425 7.53129C65.425 7.53129 65.6573 7.25179 65.9503 7.22201H65.9529Z" fill="#FFFBF4"/>
<path d="M63.6493 8.09021C63.6493 8.09021 63.1239 8.09021 62.7829 7.73969L62.8132 7.52892C62.8132 7.52892 63.1062 7.97795 63.6493 8.09021Z" fill="#FFFBF4"/>
<path d="M62.831 6.78714C62.831 6.78714 62.8007 7.64169 62.6138 8.25797C62.6138 8.25797 62.5355 8.42521 62.3663 8.37023C62.3663 8.37023 62.2122 8.34273 62.2425 8.15945C62.2425 8.15945 62.4446 7.47215 62.4446 6.78714H62.831Z" fill="#FFFBF4"/>
<path d="M62.382 6.96768L62.2726 7.13493L62.3668 7.24718C62.3668 7.24718 62.382 7.09369 62.382 6.96768Z" fill="#FFFBF4"/>
<path d="M62.1187 7.44633C62.1187 7.44633 62.2425 7.41884 62.2728 7.34781C62.2728 7.34781 62.2577 7.30658 62.1794 7.23555L62.2577 7.15079C62.2577 7.15079 62.3511 7.2493 62.3663 7.36156C62.3663 7.36156 62.336 7.46007 62.197 7.51506L62.1187 7.44404V7.44633Z" fill="#FFFBF4"/>
<path d="M62.3502 7.45995L62.212 7.54471L62.305 7.67072C62.305 7.67072 62.3351 7.55846 62.3502 7.45995Z" fill="#FFFBF4"/>
<path d="M62.2122 7.31818C62.2122 7.31818 62.2274 7.34567 62.197 7.37317C62.197 7.37317 62.1516 7.40066 62.0733 7.40066C62.0733 7.40066 62.043 7.40066 62.0127 7.37317L61.904 7.30215C61.904 7.30215 61.9647 7.32964 62.0581 7.2884C62.0581 7.2884 62.1036 7.24716 62.1516 7.26091C62.1516 7.26091 62.1819 7.27465 62.2122 7.31589V7.31818Z" fill="#FFFBF4"/>
<path d="M62.1944 8.14787C62.1944 8.14787 62.2727 7.95084 62.2878 7.74007C62.2878 7.74007 62.1034 7.27729 61.3432 7.19252L61.328 7.30478C61.328 7.30478 61.7776 7.40329 61.9771 7.62781C61.9771 7.62781 62.1615 7.81109 62.1464 8.13183L62.1918 8.14558L62.1944 8.14787Z" fill="#FFFBF4"/>
<path d="M61.9014 8.34241C61.9014 8.34241 62.1035 8.32867 62.1035 8.03313C62.1035 8.03313 62.0732 7.72384 61.8257 7.5566C61.8257 7.5566 61.6084 7.41685 61.3154 7.34583L61.3003 7.43059C61.3003 7.43059 61.4543 7.47183 61.5478 7.54285C61.5478 7.54285 61.5933 7.59784 61.5175 7.58409C61.5175 7.58409 61.3937 7.51307 61.2851 7.47183L61.2548 7.5566C61.2548 7.5566 61.5478 7.6826 61.7044 7.87963L61.765 7.82465C61.765 7.82465 61.8105 7.8109 61.7953 7.85214C61.7953 7.85214 61.6564 7.92316 61.6716 8.11789C61.6716 8.11789 61.6867 8.35616 61.904 8.34241H61.9014Z" fill="#FFFBF4"/>
<path d="M62.3813 6.78714C62.3813 6.78714 62.3813 6.92689 62.2424 7.09413C62.2424 7.09413 62.1338 7.24763 61.8863 7.26138C61.8863 7.26138 61.7928 7.26138 61.6236 7.20639C61.6236 7.20639 61.4846 7.15141 61.3609 7.15141V6.98417C61.3609 6.98417 61.5453 7.08268 61.7473 7.08268C61.7473 7.08268 62.0883 7.09643 62.2121 6.78943H62.3813V6.78714Z" fill="#FFFBF4"/>
<path d="M61.3129 6.78006H60.9416C60.9416 6.78006 60.9567 7.19244 60.8178 7.51547C60.8178 7.51547 60.7244 7.68272 60.8784 7.75374C60.8784 7.75374 61.0174 7.83851 61.1411 7.68272C61.1411 7.68272 61.3104 7.36656 61.3104 6.77777L61.3129 6.78006Z" fill="#FFFBF4"/>
<path d="M61.376 6.88506V6.94004C61.376 6.94004 61.5301 7.02481 61.7625 7.02481C61.7625 7.02481 62.0555 7.01106 62.1666 6.78883H62.058C62.058 6.78883 61.9494 6.96982 61.7019 6.96982C61.7019 6.96982 61.5326 6.96982 61.376 6.88506Z" fill="#FFFBF4"/>
<path d="M62.01 6.78714H61.8079C61.8079 6.78714 61.8079 6.83067 61.7473 6.83067H61.376C61.376 6.83067 61.4998 6.90169 61.7019 6.91544C61.7019 6.91544 61.9191 6.90169 62.0125 6.78943L62.01 6.78714Z" fill="#FFFBF4"/>
<path d="M58.9813 13.5198V13.2678L59.105 13.0845H59.2137L58.9813 13.5198Z" fill="#FFFBF4"/>
<path d="M59.191 13.0359L58.9738 12.8801V12.9511L59.0976 13.0359H59.191Z" fill="#FFFBF4"/>
<path d="M58.9738 13.2035L59.068 13.0637L58.9738 13.0087V13.2035Z" fill="#FFFBF4"/>
<path d="M59.1682 12.9583C59.1682 12.9583 59.1076 12.5803 59.1379 12.1863C59.1379 12.1863 59.1379 11.7235 59.2768 11.4417H59.1531L59.0141 11.6089V12.8438L59.1682 12.9561V12.9583Z" fill="#FFFBF4"/>
<path d="M58.9738 11.5763L59.0985 11.4366H58.9738V11.5763Z" fill="#FFFBF4"/>
<path d="M58.9738 11.2535L59.0985 11.3932H58.9738V11.2535Z" fill="#FFFBF4"/>
<path d="M59.2845 11.3939H59.1608L59.0067 11.2106V10.2988H59.2694C59.2694 10.2988 59.1759 10.537 59.1911 10.9998C59.1911 10.9998 59.2062 11.2518 59.2845 11.3916V11.3939Z" fill="#FFFBF4"/>
<path d="M59.7165 13.526C59.7165 13.526 59.6078 13.2877 59.7165 13.0632C59.7165 13.0632 59.8251 12.8799 60.1029 12.7837L60.0246 12.6715C60.0246 12.6715 59.5144 12.9097 59.4841 13.1755C59.4841 13.1755 59.4386 13.4275 59.7165 13.526Z" fill="#FFFBF4"/>
<path d="M60.1509 12.5872C60.1509 12.5872 60.0272 12.6582 60.1055 12.7269C60.1055 12.7269 60.2444 12.8254 60.4136 12.7269C60.4136 12.7269 60.5071 12.6559 60.3985 12.5872C60.3985 12.5872 60.3378 12.4887 60.4439 12.5459C60.4439 12.5459 60.598 12.6582 60.8001 12.5322C60.8001 12.5322 61.0021 12.3924 60.8607 12.2366C60.8607 12.2366 60.8001 12.2092 60.7218 12.2092C60.7218 12.2092 60.6763 12.1542 60.7672 12.1542C60.7672 12.1542 61.0602 12.2389 61.2471 11.9297C61.2471 11.9297 61.4012 11.6639 61.0299 11.5791C61.0299 11.5791 60.9365 11.5516 61.0299 11.5241C61.0299 11.5241 61.4618 11.6089 61.5098 11.2149C61.5098 11.2149 61.5553 10.9354 61.2017 10.8781C61.2017 10.8781 61.1082 10.8368 61.2017 10.8231C61.2017 10.8231 61.7119 10.8368 61.6967 10.303C61.6967 10.303 61.6816 9.93877 61.3103 9.86775C61.3103 9.86775 60.9541 9.82651 60.8607 10.1633C60.8607 10.1633 61.2775 10.051 61.2775 10.3603C61.2775 10.3603 61.2775 10.5276 60.9996 10.5436C60.9996 10.5436 60.8152 10.5573 60.6283 10.2778L60.5349 10.1243L60.3505 10.1793C60.3505 10.1793 60.8001 10.6696 60.7672 11.2882C60.7672 11.2882 60.8127 12.003 60.1484 12.5918L60.1509 12.5872Z" fill="#FFFBF4"/>
<path d="M59.4536 13.1052C59.4536 13.1052 59.5319 12.8807 59.8098 12.741C59.8098 12.741 60.3832 12.5302 60.613 11.8017C60.613 11.8017 60.9843 11.0433 60.3048 10.2025L60.1028 10.23C60.1028 10.23 60.4741 10.5393 60.4741 11.0869C60.4741 11.0869 60.4892 11.7032 59.9639 11.7032C59.9639 11.7032 59.7315 11.7169 59.638 11.4649C59.638 11.4649 59.5774 11.2976 59.6532 11.1419C59.6532 11.1419 59.3753 11.2129 59.3602 11.5061C59.3602 11.5061 59.345 11.8841 59.7163 11.9689C59.7163 11.9689 60.1482 11.9827 60.1028 12.2347C60.1028 12.2347 60.1179 12.3744 59.7946 12.6264C59.7946 12.6264 59.4865 12.8372 59.4536 13.103V13.1052Z" fill="#FFFBF4"/>
<path d="M60.4135 11.0156C60.4135 11.0156 60.4135 10.5391 60.027 10.2298L59.7946 10.2573C59.7946 10.2573 60.2897 10.523 60.4135 11.0156Z" fill="#FFFBF4"/>
<path d="M58.9738 10.2732C58.9738 10.2732 59.9184 10.2457 60.5979 10.0762C60.5979 10.0762 60.7823 10.0052 60.7217 9.85168C60.7217 9.85168 60.6914 9.71193 60.4893 9.73942C60.4893 9.73942 59.7315 9.9227 58.9712 9.9227V10.2732H58.9738Z" fill="#FFFBF4"/>
<path d="M59.1759 9.86502L59.3603 9.76651L59.4841 9.85128C59.4841 9.85128 59.3148 9.86502 59.1759 9.86502Z" fill="#FFFBF4"/>
<path d="M59.7013 9.62683C59.7013 9.62683 59.671 9.73909 59.5927 9.76658C59.5927 9.76658 59.5472 9.75284 59.4689 9.68182L59.3755 9.75284C59.3755 9.75284 59.4841 9.8376 59.6079 9.85135C59.6079 9.85135 59.7165 9.82386 59.7771 9.69785L59.6988 9.62683H59.7013Z" fill="#FFFBF4"/>
<path d="M59.7163 9.838L59.8098 9.71199L59.9487 9.79676C59.9487 9.79676 59.8249 9.82425 59.7163 9.838Z" fill="#FFFBF4"/>
<path d="M59.5619 9.71217C59.5619 9.71217 59.592 9.72591 59.6222 9.69842C59.6222 9.69842 59.6523 9.65718 59.6523 9.58616C59.6523 9.58616 59.6523 9.55867 59.6222 9.53118L59.5443 9.43266C59.5443 9.43266 59.5744 9.48765 59.5292 9.57241C59.5292 9.57241 59.484 9.61365 59.4991 9.65718C59.4991 9.65718 59.5142 9.68467 59.5594 9.71217H59.5619Z" fill="#FFFBF4"/>
<path d="M60.4742 9.69556C60.4742 9.69556 60.257 9.76658 60.0246 9.78033C60.0246 9.78033 59.5144 9.61308 59.4209 8.92349L59.5447 8.90974C59.5447 8.90974 59.6533 9.31754 59.9008 9.49853C59.9008 9.49853 60.1029 9.66578 60.4565 9.65203L60.4717 9.69327L60.4742 9.69556Z" fill="#FFFBF4"/>
<path d="M60.6913 9.42982C60.6913 9.42982 60.6761 9.6131 60.3503 9.6131C60.3503 9.6131 60.0093 9.58561 59.8249 9.36109C59.8249 9.36109 59.6708 9.16406 59.5925 8.89831L59.686 8.88456C59.686 8.88456 59.7314 9.02431 59.8097 9.10908C59.8097 9.10908 59.8704 9.15032 59.8552 9.08159C59.8552 9.08159 59.7769 8.96933 59.7314 8.87081L59.8249 8.84332C59.8249 8.84332 59.9638 9.10908 60.181 9.25112L60.1204 9.30611C60.1204 9.30611 60.1053 9.34734 60.1507 9.3336C60.1507 9.3336 60.229 9.20759 60.4437 9.22134C60.4437 9.22134 60.7064 9.23508 60.6913 9.43211V9.42982Z" fill="#FFFBF4"/>
<path d="M58.9738 9.86513C58.9738 9.86513 59.1304 9.86513 59.3148 9.73912C59.3148 9.73912 59.484 9.64061 59.4992 9.41609C59.4992 9.41609 59.4992 9.33132 59.4386 9.17782C59.4386 9.17782 59.378 9.05182 59.378 8.93956H59.1936C59.1936 8.93956 59.3022 9.1068 59.3022 9.29008C59.3022 9.29008 59.3173 9.59937 58.9763 9.71163V9.86513H58.9738Z" fill="#FFFBF4"/>
<path d="M58.9661 8.89626V8.55948C58.9661 8.55948 59.4233 8.57323 59.7769 8.44722C59.7769 8.44722 59.9613 8.36246 60.0396 8.50221C60.0396 8.50221 60.133 8.62821 59.9613 8.74047C59.9613 8.74047 59.6127 8.89397 58.9636 8.89397L58.9661 8.89626Z" fill="#FFFBF4"/>
<path d="M59.0824 8.95377H59.143C59.143 8.95377 59.2365 9.09352 59.2365 9.30429C59.2365 9.30429 59.2213 9.57005 58.9712 9.66856V9.57005C58.9712 9.57005 59.1733 9.47154 59.1733 9.24702C59.1733 9.24702 59.1733 9.09352 59.0799 8.95148L59.0824 8.95377Z" fill="#FFFBF4"/>
<path d="M58.9738 9.52823V9.34495C58.9738 9.34495 59.019 9.34495 59.019 9.28996V8.95319C59.019 8.95319 59.0969 9.06545 59.112 9.24873C59.112 9.24873 59.1045 9.44575 58.9738 9.52823Z" fill="#FFFBF4"/>
<path d="M58.9661 13.5198V13.2678L58.8423 13.0845H58.7337L58.9661 13.5198Z" fill="#FFFBF4"/>
<path d="M58.7591 13.0359L58.9738 12.8801V12.9511L58.85 13.0359H58.7591Z" fill="#FFFBF4"/>
<path d="M58.9745 13.2035L58.8829 13.0637L58.9745 13.0087V13.2035Z" fill="#FFFBF4"/>
<path d="M58.7817 12.9583C58.7817 12.9583 58.8423 12.5803 58.812 12.1863C58.812 12.1863 58.812 11.7235 58.6731 11.4417H58.7969L58.9358 11.6089V12.8438L58.7817 12.9561V12.9583Z" fill="#FFFBF4"/>
<path d="M58.9747 11.5763L58.85 11.4366H58.9747V11.5763Z" fill="#FFFBF4"/>
<path d="M58.9747 11.2535L58.85 11.3932H58.9747V11.2535Z" fill="#FFFBF4"/>
<path d="M58.6656 11.3939H58.7894L58.9435 11.2106V10.2988H58.6808C58.6808 10.2988 58.7742 10.537 58.7591 10.9998C58.7591 10.9998 58.7439 11.2518 58.6656 11.3916V11.3939Z" fill="#FFFBF4"/>
<path d="M58.2313 13.526C58.2313 13.526 58.3399 13.2877 58.2313 13.0632C58.2313 13.0632 58.1227 12.8799 57.8448 12.7837L57.9231 12.6715C57.9231 12.6715 58.4333 12.9097 58.4637 13.1755C58.4637 13.1755 58.5091 13.4275 58.2313 13.526Z" fill="#FFFBF4"/>
<path d="M57.7992 12.5872C57.7992 12.5872 57.923 12.6582 57.8447 12.7269C57.8447 12.7269 57.7058 12.8254 57.5365 12.7269C57.5365 12.7269 57.4431 12.6559 57.5517 12.5872C57.5517 12.5872 57.6123 12.4887 57.5062 12.5459C57.5062 12.5459 57.3522 12.6582 57.1501 12.5322C57.1501 12.5322 56.948 12.3924 57.0895 12.2366C57.0895 12.2366 57.1501 12.2092 57.2284 12.2092C57.2284 12.2092 57.2739 12.1542 57.1829 12.1542C57.1829 12.1542 56.8899 12.2389 56.703 11.9297C56.703 11.9297 56.5489 11.6639 56.9202 11.5791C56.9202 11.5791 57.0137 11.5516 56.9202 11.5241C56.9202 11.5241 56.4883 11.6089 56.4403 11.2149C56.4403 11.2149 56.3949 10.9354 56.7485 10.8781C56.7485 10.8781 56.8419 10.8368 56.7485 10.8231C56.7485 10.8231 56.2383 10.8368 56.2534 10.303C56.2534 10.303 56.2686 9.93877 56.6399 9.86775C56.6399 9.86775 56.996 9.82651 57.0895 10.1633C57.0895 10.1633 56.6727 10.051 56.6727 10.3603C56.6727 10.3603 56.6727 10.5276 56.9505 10.5436C56.9505 10.5436 57.1349 10.5573 57.3219 10.2778L57.4153 10.1243L57.5997 10.1793C57.5997 10.1793 57.1501 10.6696 57.1829 11.2882C57.1829 11.2882 57.1375 12.003 57.8018 12.5918L57.7992 12.5872Z" fill="#FFFBF4"/>
<path d="M58.4937 13.1052C58.4937 13.1052 58.4154 12.8807 58.1376 12.741C58.1376 12.741 57.5642 12.5302 57.3344 11.8017C57.3344 11.8017 56.9631 11.0433 57.6425 10.2025L57.8446 10.23C57.8446 10.23 57.4733 10.5393 57.4733 11.0869C57.4733 11.0869 57.4581 11.7032 57.9835 11.7032C57.9835 11.7032 58.2159 11.7169 58.3093 11.4649C58.3093 11.4649 58.37 11.2976 58.2942 11.1419C58.2942 11.1419 58.572 11.2129 58.5872 11.5061C58.5872 11.5061 58.6023 11.8841 58.231 11.9689C58.231 11.9689 57.7991 11.9827 57.8446 12.2347C57.8446 12.2347 57.8294 12.3744 58.1527 12.6264C58.1527 12.6264 58.4609 12.8372 58.4937 13.103V13.1052Z" fill="#FFFBF4"/>
<path d="M57.5366 11.0156C57.5366 11.0156 57.5366 10.5391 57.9231 10.2298L58.1555 10.2573C58.1555 10.2573 57.6604 10.523 57.5366 11.0156Z" fill="#FFFBF4"/>
<path d="M58.9737 10.2732C58.9737 10.2732 58.0316 10.2457 57.3521 10.0762C57.3521 10.0762 57.1677 10.0052 57.2283 9.85168C57.2283 9.85168 57.2586 9.71193 57.4607 9.73942C57.4607 9.73942 58.2185 9.9227 58.9737 9.9227V10.2732Z" fill="#FFFBF4"/>
<path d="M58.7742 9.86502L58.5898 9.76651L58.4661 9.85128C58.4661 9.85128 58.6353 9.86502 58.7742 9.86502Z" fill="#FFFBF4"/>
<path d="M58.2488 9.62683C58.2488 9.62683 58.2791 9.73909 58.3574 9.76658C58.3574 9.76658 58.4029 9.75284 58.4812 9.68182L58.5747 9.75284C58.5747 9.75284 58.466 9.8376 58.3423 9.85135C58.3423 9.85135 58.2337 9.82386 58.173 9.69785L58.2514 9.62683H58.2488Z" fill="#FFFBF4"/>
<path d="M58.2311 9.838L58.1376 9.71199L57.9987 9.79676C57.9987 9.79676 58.1224 9.82425 58.2311 9.838Z" fill="#FFFBF4"/>
<path d="M58.3873 9.71217C58.3873 9.71217 58.3571 9.72591 58.327 9.69842C58.327 9.69842 58.2968 9.65718 58.2968 9.58616C58.2968 9.58616 58.2968 9.55867 58.327 9.53118L58.4049 9.43266C58.4049 9.43266 58.3747 9.48765 58.4199 9.57241C58.4199 9.57241 58.4652 9.61365 58.4501 9.65718C58.4501 9.65718 58.435 9.68467 58.3898 9.71217H58.3873Z" fill="#FFFBF4"/>
<path d="M57.4735 9.69556C57.4735 9.69556 57.6907 9.76658 57.9231 9.78033C57.9231 9.78033 58.4333 9.61308 58.5267 8.92349L58.403 8.90974C58.403 8.90974 58.2944 9.31754 58.0468 9.49853C58.0468 9.49853 57.8448 9.66578 57.4911 9.65203L57.476 9.69327L57.4735 9.69556Z" fill="#FFFBF4"/>
<path d="M57.2587 9.42982C57.2587 9.42982 57.2738 9.6131 57.5997 9.6131C57.5997 9.6131 57.9407 9.58561 58.1251 9.36109C58.1251 9.36109 58.2791 9.16406 58.3574 8.89831L58.264 8.88456C58.264 8.88456 58.2185 9.02431 58.1402 9.10908C58.1402 9.10908 58.0796 9.15032 58.0947 9.08159C58.0947 9.08159 58.1731 8.96933 58.2185 8.87081L58.1251 8.84332C58.1251 8.84332 57.9861 9.10908 57.7689 9.25112L57.8295 9.30611C57.8295 9.30611 57.8447 9.34734 57.7992 9.3336C57.7992 9.3336 57.7209 9.20759 57.5062 9.22134C57.5062 9.22134 57.2435 9.23508 57.2587 9.43211V9.42982Z" fill="#FFFBF4"/>
<path d="M58.9738 9.86513C58.9738 9.86513 58.8197 9.86513 58.6353 9.73912C58.6353 9.73912 58.4661 9.64061 58.4509 9.41609C58.4509 9.41609 58.4509 9.33132 58.5115 9.17782C58.5115 9.17782 58.5722 9.05182 58.5722 8.93956H58.7566C58.7566 8.93956 58.6479 9.1068 58.6479 9.29008C58.6479 9.29008 58.6328 9.59937 58.9713 9.71163V9.86513H58.9738Z" fill="#FFFBF4"/>
<path d="M58.9815 8.89626V8.55948C58.9815 8.55948 58.5268 8.57323 58.1707 8.44722C58.1707 8.44722 57.9863 8.36246 57.908 8.50221C57.908 8.50221 57.8145 8.62821 57.9863 8.74047C57.9863 8.74047 58.3348 8.89397 58.984 8.89397L58.9815 8.89626Z" fill="#FFFBF4"/>
<path d="M58.8652 8.95319H58.8045C58.8045 8.95319 58.7111 9.09294 58.7111 9.30371C58.7111 9.30371 58.7262 9.56947 58.9713 9.67027V9.57176C58.9713 9.57176 58.7717 9.47324 58.7717 9.24873C58.7717 9.24873 58.7717 9.09523 58.8652 8.95319Z" fill="#FFFBF4"/>
<path d="M58.9756 9.52823V9.34495C58.9756 9.34495 58.9278 9.34495 58.9278 9.28996V8.95319C58.9278 8.95319 58.8499 9.06545 58.8349 9.24873C58.8349 9.24873 58.8499 9.44575 58.9731 9.53052L58.9756 9.52823Z" fill="#FFFBF4"/>
<path d="M51.5379 6.79395H51.8183L52.0178 6.9062V7.00472L51.5379 6.79395Z" fill="#FFFBF4"/>
<path d="M52.0735 6.98417L52.2418 6.78714H52.1639L52.0735 6.8994V6.98417Z" fill="#FFFBF4"/>
<path d="M51.8865 6.78714L52.0406 6.87191L52.1037 6.78714H51.8865Z" fill="#FFFBF4"/>
<path d="M52.1567 6.96095C52.1567 6.96095 52.5735 6.90596 53.0079 6.93346C53.0079 6.93346 53.5181 6.93346 53.8288 7.05946V6.9472L53.6444 6.8212H52.283L52.1592 6.96095H52.1567Z" fill="#FFFBF4"/>
<path d="M53.6799 6.78714L53.8357 6.8994V6.78714H53.6799Z" fill="#FFFBF4"/>
<path d="M54.035 6.78714L53.8818 6.8994V6.78714H54.035Z" fill="#FFFBF4"/>
<path d="M53.8818 7.0664V6.95414L54.0839 6.81439H55.0891V7.05266C55.0891 7.05266 54.8265 6.96789 54.3162 6.98164C54.3162 6.98164 54.0384 6.99538 53.8843 7.0664H53.8818Z" fill="#FFFBF4"/>
<path d="M51.5303 7.4603C51.5303 7.4603 51.793 7.36179 52.0405 7.4603C52.0405 7.4603 52.2426 7.55882 52.3487 7.81083L52.4725 7.73981C52.4725 7.73981 52.2098 7.27702 51.9168 7.24953C51.9168 7.24953 51.6389 7.20829 51.5303 7.4603Z" fill="#FFFBF4"/>
<path d="M52.5684 7.85176C52.5684 7.85176 52.4901 7.7395 52.4143 7.81052C52.4143 7.81052 52.3057 7.93653 52.4143 8.09003C52.4143 8.09003 52.4926 8.17479 52.5684 8.07628C52.5684 8.07628 52.677 8.02129 52.6139 8.11752C52.6139 8.11752 52.4901 8.25727 52.629 8.44055C52.629 8.44055 52.7831 8.62383 52.9549 8.49553C52.9549 8.49553 52.9852 8.44055 52.9852 8.36953C52.9852 8.36953 53.0458 8.32829 53.0458 8.41077C53.0458 8.41077 52.9523 8.67652 53.2933 8.84606C53.2933 8.84606 53.5863 8.98581 53.6798 8.64903C53.6798 8.64903 53.7101 8.56426 53.7404 8.64903C53.7404 8.64903 53.6469 9.04079 54.0814 9.08432C54.0814 9.08432 54.3895 9.12556 54.4527 8.80482C54.4527 8.80482 54.4982 8.72005 54.5133 8.80482C54.5133 8.80482 54.4982 9.2676 55.0867 9.25386C55.0867 9.25386 55.4883 9.24011 55.5666 8.90333C55.5666 8.90333 55.6121 8.5803 55.2408 8.49553C55.2408 8.49553 55.3645 8.87355 55.0235 8.87355C55.0235 8.87355 54.8391 8.87355 54.8215 8.62154C54.8215 8.62154 54.8063 8.45429 55.1145 8.28476L55.2837 8.19999L55.2231 8.03275C55.2231 8.03275 54.6825 8.44055 54.0006 8.41077C54.0006 8.41077 53.2125 8.452 52.5633 7.84947L52.5684 7.85176Z" fill="#FFFBF4"/>
<path d="M51.9952 7.22201C51.9952 7.22201 52.2427 7.29303 52.3968 7.54504C52.3968 7.54504 52.6291 8.0651 53.4324 8.27358C53.4324 8.27358 54.2684 8.61036 55.1954 7.99408L55.1651 7.8108C55.1651 7.8108 54.8241 8.14757 54.2204 8.14757C54.2204 8.14757 53.541 8.16132 53.541 7.68479C53.541 7.68479 53.5258 7.47402 53.8037 7.38925C53.8037 7.38925 53.9881 7.33427 54.1598 7.403C54.1598 7.403 54.0815 7.15099 53.7582 7.13724C53.7582 7.13724 53.3414 7.12349 53.248 7.46027C53.248 7.46027 53.2328 7.85203 52.955 7.8108C52.955 7.8108 52.8009 7.82454 52.5231 7.53129C52.5231 7.53129 52.2907 7.25179 51.9977 7.22201H51.9952Z" fill="#FFFBF4"/>
<path d="M54.2986 8.09021C54.2986 8.09021 54.824 8.09021 55.165 7.73969L55.1347 7.52892C55.1347 7.52892 54.8417 7.97795 54.2986 8.09021Z" fill="#FFFBF4"/>
<path d="M55.1196 6.78432C55.1196 6.78432 55.15 7.64116 55.3369 8.25744C55.3369 8.25744 55.4152 8.42468 55.5844 8.3697C55.5844 8.3697 55.7385 8.3422 55.7082 8.15892C55.7082 8.15892 55.5061 7.47162 55.5061 6.78203H55.1196V6.78432Z" fill="#FFFBF4"/>
<path d="M55.5691 6.96768L55.6785 7.13493L55.5844 7.24718C55.5844 7.24718 55.5691 7.09369 55.5691 6.96768Z" fill="#FFFBF4"/>
<path d="M55.8318 7.44633C55.8318 7.44633 55.708 7.41884 55.6777 7.34781C55.6777 7.34781 55.6929 7.30658 55.7712 7.23555L55.6929 7.15079C55.6929 7.15079 55.5994 7.2493 55.5843 7.36156C55.5843 7.36156 55.6146 7.46007 55.7535 7.51506L55.8318 7.44404V7.44633Z" fill="#FFFBF4"/>
<path d="M55.5994 7.45995L55.7376 7.54471L55.6446 7.67072C55.6446 7.67072 55.6145 7.55846 55.5994 7.45995Z" fill="#FFFBF4"/>
<path d="M55.7384 7.31818C55.7384 7.31818 55.7232 7.34567 55.7536 7.37317C55.7536 7.37317 55.799 7.40066 55.8773 7.40066C55.8773 7.40066 55.9076 7.40066 55.9379 7.37317L56.0466 7.30215C56.0466 7.30215 55.9859 7.32964 55.8925 7.2884C55.8925 7.2884 55.847 7.24716 55.799 7.26091C55.799 7.26091 55.7687 7.27465 55.7384 7.31589V7.31818Z" fill="#FFFBF4"/>
<path d="M55.7535 8.14787C55.7535 8.14787 55.6752 7.95084 55.66 7.74007C55.66 7.74007 55.8444 7.27729 56.6047 7.19252L56.6198 7.30478C56.6198 7.30478 56.1702 7.40329 55.9707 7.62781C55.9707 7.62781 55.7863 7.81109 55.8015 8.13183L55.756 8.14558L55.7535 8.14787Z" fill="#FFFBF4"/>
<path d="M56.0465 8.34241C56.0465 8.34241 55.8444 8.32867 55.8444 8.03313C55.8444 8.03313 55.8747 7.72384 56.1223 7.5566C56.1223 7.5566 56.3395 7.41685 56.6325 7.34583L56.6476 7.43059C56.6476 7.43059 56.4936 7.47183 56.4001 7.54285C56.4001 7.54285 56.3546 7.59784 56.4304 7.58409C56.4304 7.58409 56.5542 7.51307 56.6628 7.47183L56.6931 7.5566C56.6931 7.5566 56.4001 7.6826 56.2435 7.87963L56.1829 7.82465C56.1829 7.82465 56.1374 7.8109 56.1526 7.85214C56.1526 7.85214 56.2915 7.92316 56.2763 8.11789C56.2763 8.11789 56.2612 8.35616 56.044 8.34241H56.0465Z" fill="#FFFBF4"/>
<path d="M55.5691 6.78458C55.5691 6.78458 55.5691 6.92662 55.708 7.09386C55.708 7.09386 55.8166 7.24736 56.0642 7.26111C56.0642 7.26111 56.1576 7.26111 56.3269 7.20612C56.3269 7.20612 56.4658 7.15114 56.5895 7.15114V6.98389C56.5895 6.98389 56.4052 7.08241 56.2031 7.08241C56.2031 7.08241 55.8621 7.09615 55.7383 6.78687H55.5691V6.78458Z" fill="#FFFBF4"/>
<path d="M56.6352 6.78006H57.0065C57.0065 6.78006 56.9913 7.19473 57.1302 7.51547C57.1302 7.51547 57.2237 7.68272 57.0696 7.75374C57.0696 7.75374 56.9307 7.83851 56.8069 7.68272C56.8069 7.68272 56.6377 7.36656 56.6377 6.77777L56.6352 6.78006Z" fill="#FFFBF4"/>
<path d="M56.5719 6.88538V6.94036C56.5719 6.94036 56.4178 7.02513 56.1854 7.02513C56.1854 7.02513 55.8924 7.01139 55.7838 6.78458H55.8924C55.8924 6.78458 56.001 6.96786 56.2486 6.96786C56.2486 6.96786 56.4178 6.96786 56.5744 6.88309L56.5719 6.88538Z" fill="#FFFBF4"/>
<path d="M55.9379 6.78714H56.14C56.14 6.78714 56.14 6.82838 56.2006 6.82838H56.5719C56.5719 6.82838 56.4481 6.8994 56.246 6.91315C56.246 6.91315 56.0288 6.90627 55.9379 6.78714Z" fill="#FFFBF4"/>
<path d="M51.5379 6.77989H51.8183L52.0178 6.66764V6.56912L51.5379 6.77989Z" fill="#FFFBF4"/>
<path d="M52.0735 6.58955L52.2418 6.78658H52.1639L52.0735 6.67432V6.58955Z" fill="#FFFBF4"/>
<path d="M51.8865 6.78673L52.0406 6.70197L52.1037 6.78673H51.8865Z" fill="#FFFBF4"/>
<path d="M52.1567 6.61057C52.1567 6.61057 52.5735 6.66555 53.0079 6.63806C53.0079 6.63806 53.5181 6.63806 53.8288 6.51205V6.62431L53.6444 6.75032H52.283L52.1592 6.61057H52.1567Z" fill="#FFFBF4"/>
<path d="M53.6799 6.78697L53.8357 6.67471V6.78697H53.6799Z" fill="#FFFBF4"/>
<path d="M54.035 6.78697L53.8818 6.67471V6.78697H54.035Z" fill="#FFFBF4"/>
<path d="M53.8818 6.50525V6.61751L54.0839 6.75726H55.0891V6.51899C55.0891 6.51899 54.8265 6.60376 54.3162 6.59002C54.3162 6.59002 54.0384 6.57627 53.8843 6.50525H53.8818Z" fill="#FFFBF4"/>
<path d="M51.5303 6.11313C51.5303 6.11313 51.793 6.21164 52.0405 6.11313C52.0405 6.11313 52.2426 6.01461 52.3487 5.7626L52.4725 5.83362C52.4725 5.83362 52.2098 6.29641 51.9168 6.3239C51.9168 6.3239 51.6389 6.36514 51.5303 6.11313Z" fill="#FFFBF4"/>
<path d="M52.5684 5.72147C52.5684 5.72147 52.4901 5.83373 52.4143 5.76271C52.4143 5.76271 52.3057 5.63671 52.4143 5.48321C52.4143 5.48321 52.4926 5.39844 52.5684 5.49695C52.5684 5.49695 52.677 5.55194 52.6139 5.45572C52.6139 5.45572 52.4901 5.31596 52.629 5.13268C52.629 5.13268 52.7831 4.9494 52.9549 5.0777C52.9549 5.0777 52.9852 5.13268 52.9852 5.20371C52.9852 5.20371 53.0458 5.24494 53.0458 5.16247C53.0458 5.16247 52.9523 4.89671 53.2933 4.72718C53.2933 4.72718 53.5863 4.58742 53.6798 4.9242C53.6798 4.9242 53.7101 5.00897 53.7404 4.9242C53.7404 4.9242 53.6469 4.53244 54.0814 4.48891C54.0814 4.48891 54.3895 4.44767 54.4527 4.76841C54.4527 4.76841 54.4982 4.85318 54.5133 4.76841C54.5133 4.76841 54.4982 4.30563 55.0867 4.31938C55.0867 4.31938 55.4883 4.33312 55.5666 4.6699C55.5666 4.6699 55.6121 4.99293 55.2408 5.0777C55.2408 5.0777 55.3645 4.69968 55.0235 4.69968C55.0235 4.69968 54.8391 4.69968 54.8215 4.95169C54.8215 4.95169 54.8063 5.11894 55.1145 5.28847L55.2837 5.37324L55.2231 5.54048C55.2231 5.54048 54.6825 5.13268 54.0006 5.16247C54.0006 5.16247 53.2125 5.12123 52.5633 5.72376L52.5684 5.72147Z" fill="#FFFBF4"/>
<path d="M51.9952 6.3516C51.9952 6.3516 52.2427 6.28058 52.3968 6.02857C52.3968 6.02857 52.6291 5.50851 53.4324 5.30003C53.4324 5.30003 54.2684 4.96325 55.1954 5.57953L55.1651 5.76281C55.1651 5.76281 54.8241 5.42603 54.2204 5.42603C54.2204 5.42603 53.541 5.41229 53.541 5.88882C53.541 5.88882 53.5258 6.09959 53.8037 6.18436C53.8037 6.18436 53.9881 6.23934 54.1598 6.17061C54.1598 6.17061 54.0815 6.42262 53.7582 6.43637C53.7582 6.43637 53.3414 6.45011 53.248 6.11334C53.248 6.11334 53.2328 5.72157 52.955 5.76281C52.955 5.76281 52.8009 5.74907 52.5231 6.04231C52.5231 6.04231 52.2907 6.32182 51.9977 6.3516H51.9952Z" fill="#FFFBF4"/>
<path d="M54.2986 5.48071C54.2986 5.48071 54.824 5.48071 55.165 5.83124L55.1347 6.04201C55.1347 6.04201 54.8417 5.59297 54.2986 5.48071Z" fill="#FFFBF4"/>
<path d="M55.1196 6.78449C55.1196 6.78449 55.15 5.92994 55.3369 5.31366C55.3369 5.31366 55.4152 5.14642 55.5844 5.2014C55.5844 5.2014 55.7385 5.2289 55.7082 5.41218C55.7082 5.41218 55.5061 6.09948 55.5061 6.78449H55.1196Z" fill="#FFFBF4"/>
<path d="M55.5691 6.60334L55.6785 6.4361L55.5844 6.32384C55.5844 6.32384 55.5691 6.47734 55.5691 6.60334Z" fill="#FFFBF4"/>
<path d="M55.8318 6.12685C55.8318 6.12685 55.708 6.15434 55.6777 6.22536C55.6777 6.22536 55.6929 6.2666 55.7712 6.33762L55.6929 6.42239C55.6929 6.42239 55.5994 6.32388 55.5843 6.21162C55.5843 6.21162 55.6146 6.1131 55.7535 6.05812L55.8318 6.12914V6.12685Z" fill="#FFFBF4"/>
<path d="M55.5994 6.11306L55.7376 6.02829L55.6446 5.90228C55.6446 5.90228 55.6145 6.01454 55.5994 6.11306Z" fill="#FFFBF4"/>
<path d="M55.7384 6.25302C55.7384 6.25302 55.7232 6.22553 55.7536 6.19804C55.7536 6.19804 55.799 6.17055 55.8773 6.17055C55.8773 6.17055 55.9076 6.17055 55.9379 6.19804L56.0466 6.26906C56.0466 6.26906 55.9859 6.24157 55.8925 6.28281C55.8925 6.28281 55.847 6.32405 55.799 6.3103C55.799 6.3103 55.7687 6.29655 55.7384 6.25531V6.25302Z" fill="#FFFBF4"/>
<path d="M55.7535 5.42621C55.7535 5.42621 55.6752 5.62324 55.66 5.83401C55.66 5.83401 55.8444 6.29679 56.6047 6.38156L56.6198 6.2693C56.6198 6.2693 56.1702 6.17079 55.9707 5.94627C55.9707 5.94627 55.7863 5.76299 55.8015 5.44225L55.756 5.4285L55.7535 5.42621Z" fill="#FFFBF4"/>
<path d="M56.0465 5.2292C56.0465 5.2292 55.8444 5.24294 55.8444 5.53848C55.8444 5.53848 55.8747 5.84777 56.1223 6.01501C56.1223 6.01501 56.3395 6.15476 56.6325 6.22578L56.6476 6.14102C56.6476 6.14102 56.4936 6.09978 56.4001 6.02876C56.4001 6.02876 56.3546 5.97377 56.4304 5.98752C56.4304 5.98752 56.5542 6.05854 56.6628 6.09978L56.6931 6.01501C56.6931 6.01501 56.4001 5.889 56.2435 5.69198L56.1829 5.74696C56.1829 5.74696 56.1374 5.76071 56.1526 5.71947C56.1526 5.71947 56.2915 5.64845 56.2763 5.45371C56.2763 5.45371 56.2612 5.21545 56.044 5.2292H56.0465Z" fill="#FFFBF4"/>
<path d="M55.5691 6.78445C55.5691 6.78445 55.5691 6.6447 55.708 6.47745C55.708 6.47745 55.8166 6.32396 56.0642 6.31021C56.0642 6.31021 56.1576 6.31021 56.3269 6.3652C56.3269 6.3652 56.4658 6.42018 56.5895 6.42018V6.58742C56.5895 6.58742 56.4052 6.48891 56.2031 6.48891C56.2031 6.48891 55.8621 6.47516 55.7383 6.78216H55.5691V6.78445Z" fill="#FFFBF4"/>
<path d="M56.6352 6.79338H57.0065C57.0065 6.79338 56.9913 6.38099 57.1302 6.05796C57.1302 6.05796 57.2237 5.89072 57.0696 5.8197C57.0696 5.8197 56.9307 5.73493 56.8069 5.89072C56.8069 5.89072 56.6377 6.20688 56.6377 6.79567L56.6352 6.79338Z" fill="#FFFBF4"/>
<path d="M56.5718 6.68843V6.63344C56.5718 6.63344 56.4178 6.54868 56.1854 6.54868C56.1854 6.54868 55.8924 6.56242 55.7812 6.78465H55.8899C55.8899 6.78465 55.9985 6.60366 56.246 6.60366C56.246 6.60366 56.4152 6.60366 56.5718 6.68843Z" fill="#FFFBF4"/>
<path d="M55.9379 6.78684H56.1399C56.1399 6.78684 56.1399 6.74331 56.2005 6.74331H56.5718C56.5718 6.74331 56.4481 6.67228 56.246 6.65854C56.246 6.65854 56.0288 6.67228 55.9353 6.78454L55.9379 6.78684Z" fill="#FFFBF4"/>
<path d="M58.9739 8.22815C59.903 8.22815 60.6562 7.54502 60.6562 6.70234C60.6562 5.85966 59.903 5.17653 58.9739 5.17653C58.0449 5.17653 57.2917 5.85966 57.2917 6.70234C57.2917 7.54502 58.0449 8.22815 58.9739 8.22815Z" fill="#FFFBF4"/>
</svg>
