<svg width="19" height="18" viewBox="0 0 19 18" fill="none" xmlns="http://www.w3.org/2000/svg">
<path d="M6.94218 3.71137L8.99824 5.4511C8.99826 5.45111 8.99828 5.45113 8.9983 5.45115C9.48031 5.85709 10.2635 5.85711 10.7455 5.45121C10.9848 5.2479 11.1015 4.9859 11.1015 4.72698C11.1015 4.46806 10.9848 4.20607 10.7456 4.00277C10.7455 4.00273 10.7455 4.00269 10.7454 4.00266L6.46182 0.382321L6.46178 0.382365L6.4596 0.380363C6.23934 0.178768 5.93632 0.0751724 5.59637 0.0751724C5.25682 0.0751724 4.95744 0.178556 4.73267 0.380793L4.7327 0.380823L4.73081 0.382412L0.430761 4.00286C0.430758 4.00286 0.430754 4.00286 0.43075 4.00287C-0.0436306 4.40245 -0.0436268 5.04791 0.430761 5.44749C0.912791 5.8535 1.69607 5.85352 2.17812 5.44754C2.17814 5.44752 2.17816 5.4475 2.17818 5.44749L4.23424 3.70776L4.35769 3.6033V3.76501L4.35769 11.5979C4.35769 12.159 4.89549 12.6311 5.58821 12.6311C6.2811 12.6311 6.81873 12.1589 6.81873 11.6015L6.81873 3.76862V3.60691L6.94218 3.71137Z" fill="#1B2535" stroke="white" stroke-width="0.15"/>
<path d="M14.7491 17.6203L14.749 17.6202L14.7469 17.6224C14.55 17.8227 14.2801 17.9248 13.9779 17.9248C13.6761 17.9248 13.4095 17.8229 13.2085 17.6219L13.2085 17.6219L13.2067 17.6202L9.33664 13.9997C8.90934 13.5998 8.90934 12.9498 9.33664 12.5499C9.76678 12.1473 10.4637 12.1473 10.8938 12.5499L12.7442 14.2896L12.8706 14.4084V14.235L12.8706 6.4021C12.8706 5.83399 13.3579 5.36895 13.9706 5.36895C14.5835 5.36895 15.0706 5.83415 15.0706 6.39849L15.0706 14.2314V14.4048L15.1969 14.286L17.0474 12.5463C17.4775 12.1438 18.1743 12.1437 18.6044 12.5462C19.0319 12.9497 19.0319 13.5963 18.6044 13.9999C18.6044 13.9999 18.6043 13.9999 18.6043 14L14.7491 17.6203Z" fill="#1B2535" stroke="white" stroke-width="0.15"/>
</svg>
